<?xml version="1.0" encoding="utf-8"?>
<!-- Generator: Adobe Illustrator 25.2.0, SVG Export Plug-In . SVG Version: 6.00 Build 0)  -->
<svg version="1.1" xmlns="http://www.w3.org/2000/svg" xmlns:xlink="http://www.w3.org/1999/xlink" x="0px" y="0px"
	 viewBox="0 0 745 24" style="enable-background:new 0 0 745 24;" xml:space="preserve">
<style type="text/css">
	.st0{fill:none;stroke:#FEFEFE;stroke-width:1.325;stroke-linecap:square;}
</style>
<g id="Layer_2">
</g>
<g id="Layer_1">
	<g id="Group" transform="translate(0.6624756 0.66259766)">
		<path id="Stroke-37" class="st0" d="M0.1,17.4c2.5-2.4,7.5-2.4,10,0c2.5,2.4,7.5,2.4,10,0s7.5-2.4,10,0c2.5,2.4,7.5,2.4,10,0
			c2.5-2.4,7.5-2.4,10,0c2.5,2.4,7.5,2.4,10,0s7.5-2.4,10,0c2.5,2.4,7.5,2.4,10,0c2.5-2.4,7.5-2.4,10,0c2.5,2.4,7.5,2.4,10,0
			c2.5-2.4,7.5-2.4,10,0s7.5,2.4,10,0c2.5-2.4,7.5-2.4,10,0c2.5,2.4,7.5,2.4,10,0c2.5-2.4,7.5-2.4,10,0s7.5,2.4,10,0s7.5-2.4,10,0
			c2.5,2.4,7.5,2.4,10,0c2.5-2.4,7.5-2.4,10,0c2.5,2.4,7.5,2.4,10,0c2.5-2.4,7.5-2.4,10,0s7.5,2.4,10,0s7.5-2.4,10,0
			c2.5,2.4,7.5,2.4,10,0c2.5-2.4,7.5-2.4,10,0c2.5,2.4,7.5,2.4,10,0c2.5-2.4,7.5-2.4,10,0c2.5,2.4,7.5,2.4,10,0
			c2.5-2.4,7.5-2.4,10,0s7.5,2.4,10,0s7.5-2.4,10,0c2.5,2.4,7.5,2.4,10,0s7.5-2.4,10,0c2.5,2.4,7.5,2.4,10,0c2.5-2.4,7.5-2.4,10,0
			c2.5,2.4,7.5,2.4,10,0c2.5-2.4,7.5-2.4,10,0s7.5,2.4,10,0c2.5-2.4,7.5-2.4,10,0c2.5,2.4,7.5,2.4,10,0c2.5-2.4,7.5-2.4,10,0
			c2.5,2.4,7.5,2.4,10,0s7.5-2.4,10,0c2.5,2.4,7.5,2.4,10,0s7.5-2.4,10,0s7.5,2.4,10,0c2.5-2.4,7.5-2.4,10,0c2.5,2.4,7.5,2.4,10,0
			c2.5-2.4,7.5-2.4,10,0c2.5,2.4,7.5,2.4,10,0c2.5-2.4,7.5-2.4,10,0c2.5,2.4,7.5,2.4,10,0c2.5-2.4,7.5-2.4,10,0s7.5,2.4,10,0
			c2.5-2.4,7.5-2.4,10,0s7.5,2.4,10,0s7.5-2.4,10,0c2.5,2.4,7.5,2.4,10,0s7.5-2.4,10,0c2.5,2.4,7.5,2.4,10,0c2.5-2.4,7.5-2.4,10,0
			c2.5,2.4,7.5,2.4,10,0c2.5-2.4,7.5-2.4,10,0s7.5,2.4,10,0c2.5-2.4,7.5-2.4,10,0s7.5,2.4,10,0c2.5-2.4,7.5-2.4,10,0s7.5,2.4,10,0
			s7.5-2.4,10,0s7.5,2.4,10,0s7.5-2.4,10,0c2.5,2.4,7.5,2.4,10,0s7.5-2.4,10,0c2.5,2.4,7.5,2.4,10,0"/>
		<path id="Stroke-43" class="st0" d="M0,5.4c2.5-2.4,7.5-2.4,10,0c2.5,2.4,7.5,2.4,10,0s7.5-2.4,10,0c2.5,2.4,7.5,2.4,10,0
			c2.5-2.4,7.5-2.4,10,0c2.5,2.4,7.5,2.4,10,0s7.5-2.4,10,0c2.5,2.4,7.5,2.4,10,0c2.5-2.4,7.5-2.4,10,0c2.5,2.4,7.5,2.4,10,0
			c2.5-2.4,7.5-2.4,10,0s7.5,2.4,10,0c2.5-2.4,7.5-2.4,10,0c2.5,2.4,7.5,2.4,10,0c2.5-2.4,7.5-2.4,10,0s7.5,2.4,10,0s7.5-2.4,10,0
			c2.5,2.4,7.5,2.4,10,0c2.5-2.4,7.5-2.4,10,0c2.5,2.4,7.5,2.4,10,0c2.5-2.4,7.5-2.4,10,0s7.5,2.4,10,0s7.5-2.4,10,0
			c2.5,2.4,7.5,2.4,10,0c2.5-2.4,7.5-2.4,10,0c2.5,2.4,7.5,2.4,10,0c2.5-2.4,7.5-2.4,10,0c2.5,2.4,7.5,2.4,10,0
			c2.5-2.4,7.5-2.4,10,0s7.5,2.4,10,0s7.5-2.4,10,0c2.5,2.4,7.5,2.4,10,0s7.5-2.4,10,0c2.5,2.4,7.5,2.4,10,0c2.5-2.4,7.5-2.4,10,0
			c2.5,2.4,7.5,2.4,10,0c2.5-2.4,7.5-2.4,10,0s7.5,2.4,10,0c2.5-2.4,7.5-2.4,10,0c2.5,2.4,7.5,2.4,10,0c2.5-2.4,7.5-2.4,10,0
			c2.5,2.4,7.5,2.4,10,0s7.5-2.4,10,0c2.5,2.4,7.5,2.4,10,0s7.5-2.4,10,0s7.5,2.4,10,0c2.5-2.4,7.5-2.4,10,0c2.5,2.4,7.5,2.4,10,0
			c2.5-2.4,7.5-2.4,10,0c2.5,2.4,7.5,2.4,10,0c2.5-2.4,7.5-2.4,10,0c2.5,2.4,7.5,2.4,10,0c2.5-2.4,7.5-2.4,10,0s7.5,2.4,10,0
			c2.5-2.4,7.5-2.4,10,0s7.5,2.4,10,0s7.5-2.4,10,0c2.5,2.4,7.5,2.4,10,0s7.5-2.4,10,0c2.5,2.4,7.5,2.4,10,0c2.5-2.4,7.5-2.4,10,0
			c2.5,2.4,7.5,2.4,10,0c2.5-2.4,7.5-2.4,10,0s7.5,2.4,10,0c2.5-2.4,7.5-2.4,10,0s7.5,2.4,10,0c2.5-2.4,7.5-2.4,10,0s7.5,2.4,10,0
			s7.5-2.4,10,0s7.5,2.4,10,0s7.5-2.4,10,0c2.5,2.4,7.5,2.4,10,0s7.5-2.4,10,0c2.5,2.4,7.5,2.4,10,0"/>
	</g>
</g>
</svg>
