<?xml version="1.0" encoding="utf-8"?>
<!-- Generator: Adobe Illustrator 21.1.0, SVG Export Plug-In . SVG Version: 6.00 Build 0)  -->
<svg version="1.1" id="Layer_1" xmlns="http://www.w3.org/2000/svg" xmlns:xlink="http://www.w3.org/1999/xlink" x="0px" y="0px"
	 viewBox="0 0 38.2 36" style="enable-background:new 0 0 38.2 36;" xml:space="preserve">
<style type="text/css">
	.st0{clip-path:url(#SVGID_2_);fill:#FF0000;}
</style>
<g>
	<defs>
		<polygon id="SVGID_1_" points="28.1,5.2 32.6,5.3 32.6,9.4 36.7,11.1 35.1,15 38.2,18 35.1,21 36.7,24.8 32.7,26.5 32.6,30.7 
			28.2,30.7 26.4,34.6 22.3,33 19.1,36 15.9,33 11.8,34.6 10.1,30.7 5.6,30.7 5.6,26.5 1.5,24.9 3.1,21 0,18 3.1,15 1.4,11.1 
			5.5,9.5 5.6,5.3 10,5.2 11.8,1.4 15.9,2.9 19.1,0 22.3,2.9 26.4,1.4 		"/>
	</defs>
	<clipPath id="SVGID_2_">
		<use xlink:href="#SVGID_1_"  style="overflow:visible;"/>
	</clipPath>
	<rect x="-2.7" y="-2.7" class="st0" width="43.5" height="41.3"/>
</g>
</svg>
