<?xml version="1.0" standalone="no"?>
<!DOCTYPE svg PUBLIC "-//W3C//DTD SVG 1.1//EN" "http://www.w3.org/Graphics/SVG/1.1/DTD/svg11.dtd" >
<svg xmlns="http://www.w3.org/2000/svg" xmlns:xlink="http://www.w3.org/1999/xlink" version="1.1">
<metadata>
Created by FontForge 20170731 at Tue Jul 21 22:44:34 2020
 By Aleksey,,,
Copyright (c) 2008 by TipografiaRamis. All rights reserved.
</metadata>
<defs>
<font id="DecimaLight" horiz-adv-x="927" >
  <font-face 
    font-family="Decima Lt"
    font-weight="300"
    font-stretch="normal"
    units-per-em="2048"
    panose-1="2 0 5 6 0 0 0 2 0 4"
    ascent="1536"
    descent="-512"
    x-height="1024"
    cap-height="1434"
    bbox="-164 -430 2367 1858"
    underline-thickness="102"
    underline-position="-307"
    unicode-range="U+0020-FB02"
  />
<missing-glyph horiz-adv-x="430" 
 />
    <glyph glyph-name=".notdef" horiz-adv-x="430" 
 />
    <glyph glyph-name=".null" horiz-adv-x="0" 
 />
    <glyph glyph-name="nonmarkingreturn" horiz-adv-x="682" 
 />
    <glyph glyph-name="space" unicode=" " horiz-adv-x="430" 
 />
    <glyph glyph-name="exclam" unicode="!" horiz-adv-x="471" 
d="M164 0v143h143v-143h-143zM287 1434v-1127h-107v1127h107z" />
    <glyph glyph-name="quotedbl" unicode="&#x22;" horiz-adv-x="704" 
d="M143 989v465h140l-68 -465h-72zM432 989v465h139l-69 -465h-70z" />
    <glyph glyph-name="numbersign" unicode="#" horiz-adv-x="1269" 
d="M1057 514v-92h-213l-60 -422h-94l58 422h-308l-59 -422h-92l55 422h-201v92h215l58 418h-203v92h213l61 410h97l-58 -410h305l60 410h94l-59 -410h200v-92h-213l-57 -418h201zM455 514h305l57 418h-305z" />
    <glyph glyph-name="dollar" unicode="$" horiz-adv-x="1009" 
d="M457 -104v102q-141 15 -232.5 117t-91.5 243v50h109v-50q0 -112 70.5 -188t179.5 -76h26q108 0 179 73t71 175q0 68 -21 122t-56.5 91t-81.5 68t-96.5 56l-101 50t-96.5 57t-81.5 70.5t-56.5 95t-21 127.5q0 135 84 234.5t217 122.5v102h94v-102q137 -22 221.5 -118.5
t87.5 -240.5h-104q-5 112 -73 185t-175 73q-106 0 -176 -69.5t-70 -175.5q0 -55 21 -100t56.5 -76t82 -58t97.5 -51.5t101.5 -51.5t97 -62.5t82 -79.5t56.5 -109t21 -144q0 -142 -92.5 -244t-233.5 -116v-102h-94z" />
    <glyph glyph-name="percent" unicode="%" horiz-adv-x="1755" 
d="M688 1176v-285q0 -121 -80.5 -206t-193.5 -85h-17q-113 0 -193.5 85.5t-80.5 205.5v285q0 120 80 199t194 79h17q114 0 194 -79t80 -199zM590 885v282q0 83 -54.5 141t-132.5 58t-131 -57.5t-53 -141.5v-280q0 -84 54 -141.5t135 -57.5q75 0 128.5 57.5t53.5 139.5z
M1632 541v-273q0 -122 -79.5 -206.5t-192.5 -84.5h-19q-113 0 -192.5 85t-79.5 206v273q0 121 79.5 205.5t192.5 84.5h19q113 0 192.5 -84.5t79.5 -205.5zM1536 262v283q0 82 -54 139t-132 57t-131.5 -57t-53.5 -139v-281q0 -85 53.5 -141.5t135.5 -56.5q76 0 129 56.5
t53 139.5zM469 0l717 1434h104l-719 -1434h-102z" />
    <glyph glyph-name="ampersand" unicode="&#x26;" horiz-adv-x="1013" 
d="M801 1434v-101h-486v-43l439 -1038q20 67 20 110v279h107v-299q0 -129 -68 -221q37 -81 53 -121h-116l-19 49q-104 -69 -213 -69h-12q-150 0 -256.5 107t-106.5 257v311q0 95 57.5 173.5t143.5 115.5l-137 311v179h594zM512 78q96 0 174 63l-303 709q-60 -29 -95.5 -83
t-35.5 -114v-311q0 -111 75 -187.5t185 -76.5z" />
    <glyph glyph-name="quotesingle" unicode="'" horiz-adv-x="415" 
d="M143 989v465h140l-68 -465h-72z" />
    <glyph glyph-name="parenleft" unicode="(" horiz-adv-x="604" 
d="M512 -301v-98q-147 3 -247.5 108.5t-100.5 255.5v1139q0 141 103.5 246t244.5 116v-102q-105 -4 -172.5 -79t-67.5 -183v-1141q0 -107 67.5 -182.5t172.5 -79.5z" />
    <glyph glyph-name="parenright" unicode=")" horiz-adv-x="604" 
d="M92 -399v98q105 4 173.5 79.5t68.5 182.5v1141q0 108 -68.5 183t-173.5 79v102q147 -3 247.5 -107.5t100.5 -254.5v-1139q0 -141 -103.5 -247t-244.5 -117z" />
    <glyph glyph-name="asterisk" unicode="*" horiz-adv-x="694" 
d="M311 1454h72v-174l170 55l18 -63l-170 -66l103 -139l-53 -41l-105 141l-94 -141l-59 41l94 143l-164 50l20 67l168 -47v174z" />
    <glyph glyph-name="plus" unicode="+" horiz-adv-x="1161" 
d="M528 1026h105v-395h395v-103h-395v-397h-105v397h-395v103h395v395z" />
    <glyph glyph-name="comma" unicode="," horiz-adv-x="407" 
d="M133 0v143h141v-153l-75 -236h-74l74 246h-66z" />
    <glyph glyph-name="hyphen" unicode="-" horiz-adv-x="722" 
d="M590 631v-103h-457v103h457z" />
    <glyph glyph-name="period" unicode="." horiz-adv-x="409" 
d="M133 0v143h143v-143h-143z" />
    <glyph glyph-name="slash" unicode="/" horiz-adv-x="698" 
d="M20 0l558 1434h100l-555 -1434h-103z" />
    <glyph glyph-name="zero" unicode="0" horiz-adv-x="968" 
d="M836 1092v-750q0 -151 -100.5 -256.5t-243.5 -105.5h-17q-141 0 -241.5 106.5t-100.5 257.5v748q0 150 100.5 256t241.5 106h17q143 0 243.5 -105.5t100.5 -256.5zM731 340v750q0 111 -72.5 188.5t-177.5 77.5q-103 0 -173 -77.5t-70 -188.5v-748q0 -111 70.5 -187.5
t176.5 -76.5q103 0 174.5 76t71.5 186z" />
    <glyph glyph-name="one" unicode="1" horiz-adv-x="505" 
d="M31 1333v101h301v-1434h-107v1333h-194z" />
    <glyph glyph-name="two" unicode="2" horiz-adv-x="919" 
d="M215 1092h-106q3 159 110 260.5t258 101.5q152 0 256.5 -103t104.5 -257q0 -89 -35 -169t-91.5 -141.5t-124 -120t-135.5 -116t-124.5 -117t-91.5 -135.5t-35 -160v-37h637v-98h-746v123q0 99 35 186.5t91.5 153.5t124 126.5t135.5 117.5t124.5 115t91.5 131t35 153
q0 105 -75 177.5t-181 72.5q-107 0 -180 -76t-78 -188z" />
    <glyph glyph-name="three" unicode="3" horiz-adv-x="911" 
d="M131 1333v101h623v-113l-287 -381q122 0 221.5 -89.5t99.5 -215.5v-291q0 -151 -105.5 -257.5t-256.5 -106.5h-12q-151 0 -257 105.5t-106 256.5v8h107v-10q0 -110 76 -186t186 -76t186 77t76 187v291q0 84 -59.5 146.5t-143.5 62.5h-125v112l281 379h-504z" />
    <glyph glyph-name="four" unicode="4" horiz-adv-x="946" 
d="M72 322v127l463 985h114l-469 -1008h443v389h108v-389h123v-104h-123v-322h-108v322h-551z" />
    <glyph glyph-name="five" unicode="5" horiz-adv-x="983" 
d="M113 342v8h108v-10q0 -110 75 -186t185 -76t186 77t76 187v246q0 111 -76 188.5t-186 77.5h-12q-68 0 -121 -32t-78 -74l-108 30l59 658h580v-105h-482l-36 -457q31 31 85 54.5t107 23.5h12q151 0 257 -105.5t106 -256.5v-246q0 -151 -106 -257.5t-257 -106.5h-12
q-150 0 -256 106t-106 256z" />
    <glyph glyph-name="six" unicode="6" horiz-adv-x="1005" 
d="M242 1087v-294q29 54 100.5 105.5t153.5 51.5h14q150 0 256 -106t106 -256v-244q0 -151 -106.5 -257.5t-255.5 -106.5h-14q-150 0 -256.5 106t-106.5 256v748q0 151 102.5 257.5t251.5 106.5h13q140 0 242.5 -103.5t113.5 -246.5h-106q-5 107 -77.5 178.5t-178.5 71.5
q-109 0 -180.5 -77.5t-71.5 -189.5zM489 852q-92 0 -169.5 -79.5t-77.5 -186.5v-246q0 -110 75 -186t185 -76q112 0 187 76.5t75 187.5v244q0 111 -75 188.5t-187 77.5h-13z" />
    <glyph glyph-name="seven" unicode="7" horiz-adv-x="774" 
d="M371 0h-111q2 139 37 304.5t84 311.5t98 281t83 251.5t34 184.5h-565v101h671v-123q0 -64 -33.5 -181t-81.5 -254.5t-96.5 -284t-83 -306t-36.5 -285.5z" />
    <glyph glyph-name="eight" unicode="8" horiz-adv-x="1005" 
d="M852 1110v-74q0 -85 -43.5 -161.5t-118.5 -131.5q85 -54 133.5 -137t48.5 -178v-86q0 -151 -104.5 -256.5t-253.5 -105.5h-18q-150 0 -256.5 107t-106.5 257v84q0 94 49 177t135 138q-76 55 -119.5 132.5t-43.5 162.5v72q0 143 99.5 243.5t240.5 100.5h18
q141 0 240.5 -100.5t99.5 -243.5zM764 340v86q0 111 -75 188.5t-187 77.5q-108 0 -183 -77.5t-75 -188.5v-84q0 -111 75.5 -187.5t188.5 -76.5q107 0 181.5 76t74.5 186zM745 1034v68q0 107 -70 180.5t-175 73.5q-102 0 -172 -74t-70 -180v-66q0 -99 67 -172t171 -73h18
q95 0 163 70t68 173z" />
    <glyph glyph-name="nine" unicode="9" horiz-adv-x="1005" 
d="M764 346v293q-33 -56 -103.5 -107t-150.5 -51h-14q-150 0 -256.5 106.5t-106.5 256.5v246q0 150 106.5 257t256.5 107h14q150 0 256 -106t106 -256v-748q0 -151 -102.5 -257.5t-251.5 -106.5h-12q-140 0 -242.5 103t-113.5 245h106q5 -105 77.5 -177.5t178.5 -72.5
q109 0 180.5 78t71.5 190zM516 580q92 0 170 79.5t78 186.5v248q0 111 -75 185.5t-187 74.5q-110 0 -185 -76t-75 -186v-246q0 -111 75 -188.5t185 -77.5h14z" />
    <glyph glyph-name="colon" unicode=":" horiz-adv-x="409" 
d="M133 0v143h143v-143h-143zM133 881v143h143v-143h-143z" />
    <glyph glyph-name="semicolon" unicode=";" horiz-adv-x="409" 
d="M133 881v143h143v-143h-143zM133 0v143h141v-153l-75 -236h-74l74 246h-66z" />
    <glyph glyph-name="less" unicode="&#x3c;" horiz-adv-x="1091" 
d="M123 543v119l835 376v-112l-729 -320v-8l729 -317v-115z" />
    <glyph glyph-name="equal" unicode="=" horiz-adv-x="1163" 
d="M1030 469v-102h-897v102h897zM1030 797v-105h-897v105h897z" />
    <glyph glyph-name="greater" unicode="&#x3e;" horiz-adv-x="1091" 
d="M969 662v-119l-836 -377v115l729 317v8l-729 320v112z" />
    <glyph glyph-name="question" unicode="?" horiz-adv-x="911" 
d="M188 1092h-106q3 160 107.5 261t256.5 101q156 0 260.5 -99t104.5 -261q0 -77 -18.5 -139.5t-48.5 -106.5t-66 -84.5t-72.5 -83.5t-67 -92t-49.5 -121t-20 -160h-104q1 99 20 179t48.5 133.5t65.5 98.5t71.5 84.5t65 80.5t48 97t18.5 124q0 105 -74.5 176.5t-181.5 71.5
q-108 0 -180.5 -74.5t-77.5 -185.5zM346 0v143h143v-143h-143z" />
    <glyph glyph-name="at" unicode="@" horiz-adv-x="1271" 
d="M541 690v-381q0 -98 71.5 -169.5t171.5 -71.5q102 0 176 72t74 169v381q0 98 -72.5 171t-175.5 73q-101 0 -173 -73t-72 -171zM1034 899v72q0 161 -113 275t-270 114h-24q-161 0 -274 -114t-113 -275v-858q0 -161 112 -274t271 -113v-95q-130 1 -240.5 66.5t-175 176
t-64.5 239.5v858q0 131 65 242t176.5 176t242.5 65h24q195 0 336 -142t141 -341v-971h-94v102q-49 -54 -114.5 -88t-135.5 -34q-149 0 -243.5 92t-94.5 225v408q0 133 94.5 225t243.5 92q148 0 250 -123z" />
    <glyph glyph-name="A" unicode="A" horiz-adv-x="1019" 
d="M399 1434h222l256 -873v-561h-107v489h-520v-489h-107v561zM764 588l-215 747h-78l-215 -747h508z" />
    <glyph glyph-name="B" unicode="B" horiz-adv-x="968" 
d="M512 1434q132 0 220.5 -87.5t88.5 -211.5v-119q0 -73 -39.5 -141.5t-103.5 -114.5q158 -119 158 -279v-155q0 -139 -99 -232.5t-233 -93.5h-340v1434h348zM518 1331h-248v-528h248q85 0 145 60t60 145v118q0 85 -60 145t-145 60zM270 709v-611h234q98 0 162.5 67.5
t64.5 160.5v155q0 34 -13 71.5t-39 73.5t-72 59.5t-103 23.5h-234z" />
    <glyph glyph-name="C" unicode="C" horiz-adv-x="997" 
d="M874 346v-8q0 -149 -104.5 -253.5t-253.5 -104.5h-14q-148 0 -253.5 105.5t-105.5 254.5v756q0 149 105.5 253.5t253.5 104.5h14q149 0 253.5 -104.5t104.5 -253.5h-106q-2 107 -76.5 181.5t-181.5 74.5q-110 0 -185 -74.5t-75 -183.5v-756q0 -109 75 -184.5t185 -75.5
q109 0 183.5 74.5t74.5 183.5v10h106z" />
    <glyph glyph-name="D" unicode="D" horiz-adv-x="1017" 
d="M874 1073v-713q0 -149 -105.5 -254.5t-254.5 -105.5h-350v1434h350q149 0 254.5 -106t105.5 -255zM768 356v715q0 110 -75 185t-185 75h-238v-1233h238q110 0 185 74.5t75 183.5z" />
    <glyph glyph-name="E" unicode="E" 
d="M164 1434h643v-99h-537v-528h488v-98h-488v-611h555v-98h-661v1434z" />
    <glyph glyph-name="F" unicode="F" horiz-adv-x="878" 
d="M164 1434h643v-99h-537v-528h488v-98h-488v-709h-106v1434z" />
    <glyph glyph-name="G" unicode="G" horiz-adv-x="1042" 
d="M899 702v-364q0 -149 -104.5 -253.5t-253.5 -104.5h-39q-149 0 -254 105.5t-105 254.5v756q0 149 105 253.5t254 104.5h39q149 0 253.5 -104.5t104.5 -253.5h-106q-2 107 -76.5 181.5t-181.5 74.5h-27q-109 0 -183.5 -74.5t-74.5 -183.5v-756q0 -109 74.5 -184.5
t183.5 -75.5h27q109 0 183.5 74.5t74.5 183.5v268h-213v98h319z" />
    <glyph glyph-name="H" unicode="H" horiz-adv-x="1060" 
d="M791 1434h106v-1434h-106v709h-521v-709h-106v1434h106v-627h521v627z" />
    <glyph glyph-name="I" unicode="I" horiz-adv-x="436" 
d="M272 1434v-1434h-108v1434h108z" />
    <glyph glyph-name="J" unicode="J" horiz-adv-x="878" 
d="M606 1434h109v-1143q0 -129 -91.5 -220t-220.5 -91t-220 91t-91 220v223h107v-233q0 -84 59 -143.5t141 -59.5q87 0 147 59t60 144v1153z" />
    <glyph glyph-name="K" unicode="K" horiz-adv-x="972" 
d="M907 1434l-501 -672l534 -762h-135l-529 760l500 674h131zM270 1434v-1434h-106v1434h106z" />
    <glyph glyph-name="L" unicode="L" horiz-adv-x="794" 
d="M164 1434h106v-1336h473v-98h-579v1434z" />
    <glyph glyph-name="M" unicode="M" horiz-adv-x="1253" 
d="M952 1434h138v-1434h-105v1167l8 121l-6 4l-45 -112l-260 -535h-111l-260 535l-45 112l-6 -2l8 -123v-1167h-104v1434h137l305 -633l17 -47h8l16 47z" />
    <glyph glyph-name="N" unicode="N" horiz-adv-x="1060" 
d="M793 1434h104v-1434h-133l-463 1145l-33 98l-8 -2l8 -104v-1137h-104v1434h133l465 -1153l31 -91l8 3l-8 90v1151z" />
    <glyph glyph-name="O" unicode="O" horiz-adv-x="1042" 
d="M899 1096v-758q0 -149 -104.5 -253.5t-253.5 -104.5h-39q-149 0 -254 105.5t-105 254.5v756q0 149 105 253.5t254 104.5h39q149 0 253.5 -104.5t104.5 -253.5zM793 336v758q0 109 -74.5 183.5t-183.5 74.5h-27q-109 0 -183.5 -74.5t-74.5 -183.5v-756q0 -109 74.5 -184.5
t183.5 -75.5h27q109 0 183.5 74.5t74.5 183.5z" />
    <glyph glyph-name="P" unicode="P" horiz-adv-x="919" 
d="M164 0v1434h364q123 0 211 -87.5t88 -211.5v-312q0 -125 -87.5 -213t-211.5 -88h-258v-522h-106zM721 817v316q0 82 -58.5 140t-140.5 58h-252v-710h252q82 0 140.5 57.5t58.5 138.5z" />
    <glyph glyph-name="Q" unicode="Q" horiz-adv-x="1044" 
d="M899 1096v-758q0 -113 -68 -213l107 -109l-68 -63l-104 106q-101 -79 -225 -79h-39q-149 0 -254 105.5t-105 254.5v756q0 149 105 253.5t254 104.5h39q149 0 253.5 -104.5t104.5 -253.5zM686 276l72 -73q35 60 35 133v758q0 109 -74.5 183.5t-183.5 74.5h-27
q-109 0 -183.5 -74.5t-74.5 -183.5v-756q0 -71 29 -119q21 59 86.5 100t132.5 41q107 0 188 -84zM535 78q88 0 159 53l-82 84q-51 51 -118 51q-52 0 -99.5 -34t-60.5 -89q78 -65 174 -65h27z" />
    <glyph glyph-name="R" unicode="R" horiz-adv-x="960" 
d="M743 0l-227 547h-246v-547h-106v1434h364q123 0 211 -87.5t88 -211.5v-287q0 -94 -56.5 -174t-145.5 -111l233 -563h-115zM721 842v291q0 82 -58.5 140t-140.5 58h-252v-686h252q82 0 140.5 57.5t58.5 139.5z" />
    <glyph glyph-name="S" unicode="S" horiz-adv-x="1001" 
d="M864 1096h-104q-5 110 -77.5 183t-180.5 73q-105 0 -178.5 -70.5t-73.5 -173.5q0 -55 21.5 -100.5t58 -79t83.5 -63.5t99 -58.5t104.5 -58.5t99.5 -69t83.5 -85.5t58 -112t21.5 -143.5q0 -149 -104.5 -253.5t-252.5 -104.5h-41q-149 0 -253.5 104.5t-104.5 253.5v49h106
v-49q0 -109 74.5 -184.5t183.5 -75.5h27q108 0 183 72.5t75 171.5q0 67 -21.5 122.5t-58 95t-83.5 73t-99 61.5t-104.5 57t-99.5 63.5t-83.5 75.5t-58 99t-21.5 129q0 151 105 253.5t254 102.5q151 0 255 -100t107 -258z" />
    <glyph glyph-name="T" unicode="T" horiz-adv-x="815" 
d="M41 1333v101h733v-101h-311v-1333h-109v1333h-313z" />
    <glyph glyph-name="U" unicode="U" horiz-adv-x="1062" 
d="M803 1434h106v-1096q0 -149 -104.5 -253.5t-253.5 -104.5h-39q-148 0 -253 105.5t-105 254.5v1094h106v-1096q0 -109 75 -184.5t185 -75.5h25q109 0 183.5 74.5t74.5 183.5v1098z" />
    <glyph glyph-name="V" unicode="V" horiz-adv-x="1019" 
d="M250 1434v-560l223 -776h74l223 776v560h107v-566l-256 -868h-222l-256 868v566h107z" />
    <glyph glyph-name="W" unicode="W" horiz-adv-x="1370" 
d="M1110 870v564h107v-570l-127 -864h-197l-199 688h-18l-199 -688h-196l-127 864v570h106v-564l111 -772h28l211 723h150l211 -723h28z" />
    <glyph glyph-name="X" unicode="X" horiz-adv-x="993" 
d="M225 1434l271 -580l272 580h121l-330 -689l363 -745h-125l-301 639l-299 -639h-125l360 745l-328 689h121z" />
    <glyph glyph-name="Y" unicode="Y" horiz-adv-x="933" 
d="M170 1434l297 -609l299 609h117l-361 -752v-682h-108v682l-363 752h119z" />
    <glyph glyph-name="Z" unicode="Z" horiz-adv-x="942" 
d="M840 1323l-621 -1225h619v-98h-736v111l621 1224h-590v99h707v-111z" />
    <glyph glyph-name="bracketleft" unicode="[" horiz-adv-x="614" 
d="M522 -270v-99h-348v1803h348v-105h-239v-1599h239z" />
    <glyph glyph-name="backslash" unicode="\" horiz-adv-x="696" 
d="M123 1434l553 -1434h-103l-553 1434h103z" />
    <glyph glyph-name="bracketright" unicode="]" horiz-adv-x="614" 
d="M92 -369v99h242v1599h-242v105h348v-1803h-348z" />
    <glyph glyph-name="asciicircum" unicode="^" horiz-adv-x="911" 
d="M414 1434h96l272 -717h-82l-233 600h-10l-234 -600h-82z" />
    <glyph glyph-name="underscore" unicode="_" horiz-adv-x="937" 
d="M-2 -188h940v-76h-940v76z" />
    <glyph glyph-name="grave" unicode="`" horiz-adv-x="362" 
d="M362 1163h-110l-252 250h143z" />
    <glyph glyph-name="a" unicode="a" horiz-adv-x="905" 
d="M676 0v96q-122 -116 -273 -116q-128 0 -219.5 87t-91.5 218q0 129 88.5 219.5t220.5 99.5l275 21v90q0 101 -59 171t-160 70q-82 0 -136.5 -48.5t-74.5 -127.5h-96q18 117 100 190.5t207 73.5q149 0 232 -90t83 -227v-727h-96zM414 66q112 0 187 64.5t75 152.5v252
l-270 -17q-93 -6 -155.5 -72t-62.5 -159t66.5 -157t159.5 -64z" />
    <glyph glyph-name="b" unicode="b" horiz-adv-x="952" 
d="M143 0v1434h97v-510q45 55 111.5 87.5t137.5 32.5q151 0 245.5 -91.5t94.5 -225.5v-430q0 -134 -94.5 -225.5t-245.5 -91.5q-76 0 -140 35t-109 94v-109h-97zM733 309v406q0 98 -71.5 169.5t-174.5 71.5t-175 -71.5t-72 -169.5v-406q0 -97 73.5 -169t175.5 -72t173 71.5
t71 169.5z" />
    <glyph glyph-name="c" unicode="c" horiz-adv-x="907" 
d="M217 715v-406q0 -98 72 -169.5t176 -71.5q100 0 171 66.5t75 164.5h94q-8 -138 -101.5 -228.5t-238.5 -90.5q-153 0 -247.5 92t-94.5 227v428q0 134 94.5 225.5t247.5 91.5q139 0 231.5 -90.5t100.5 -222.5h-97q-5 99 -70.5 162t-164.5 63q-103 0 -175.5 -71.5
t-72.5 -169.5z" />
    <glyph glyph-name="d" unicode="d" horiz-adv-x="952" 
d="M809 1434v-1434h-96v109q-45 -59 -109.5 -94t-140.5 -35q-151 0 -245.5 91.5t-94.5 225.5v430q0 134 94.5 225.5t245.5 91.5q71 0 138 -32.5t112 -87.5v510h96zM219 715v-406q0 -98 71 -169.5t173 -71.5t176 72t74 169v406q0 98 -72.5 169.5t-175.5 71.5t-174.5 -71.5
t-71.5 -169.5z" />
    <glyph glyph-name="e" unicode="e" 
d="M711 299h94q-8 -140 -101 -229.5t-239 -89.5q-153 0 -247.5 91.5t-94.5 225.5v430q0 134 94.5 225.5t247.5 91.5q151 0 245.5 -91.5t94.5 -225.5v-244h-588v-174q0 -98 71.5 -169.5t174.5 -71.5q101 0 172 66.5t76 164.5zM217 715v-144h494v144q0 98 -72.5 169.5
t-175.5 71.5t-174.5 -71.5t-71.5 -169.5z" />
    <glyph glyph-name="f" unicode="f" horiz-adv-x="643" 
d="M51 936v88h150v168q0 110 76.5 187t185.5 77q63 0 139 -37l-51 -73q-44 22 -88 22q-70 0 -118 -49t-48 -119v-176h268v-88h-268v-936h-96v936h-150z" />
    <glyph glyph-name="g" unicode="g" horiz-adv-x="890" 
d="M358 248v67q-106 20 -176.5 103t-70.5 188v142q0 122 91 209t218 87q99 0 174 -59l78 107q19 26 52 39.5t64 13.5v-88q-47 0 -77 -45l-54 -78q68 -89 68 -186v-142q0 -106 -74.5 -191t-181.5 -102v-65q0 -31 13.5 -50t39.5 -34l185 -125q122 -82 122 -193
q0 -62 -36.5 -109.5t-96 -73.5t-126 -39t-136.5 -13q-96 0 -179.5 25.5t-138.5 79.5t-55 126v17h101v-17q0 -60 79 -100.5t193 -40.5q132 0 215.5 38.5t83.5 108.5q0 60 -65 103l-234 155q-33 21 -54.5 59.5t-21.5 82.5zM627 606v139q0 89 -62 150t-145 61
q-88 0 -148.5 -60.5t-60.5 -150.5v-139q0 -88 60.5 -148.5t148.5 -60.5q83 0 145 62t62 147z" />
    <glyph glyph-name="h" unicode="h" horiz-adv-x="960" 
d="M827 0h-96v715q0 98 -72.5 169.5t-175.5 71.5q-102 0 -172.5 -70.5t-70.5 -166.5v-719h-97v1434h97v-510q47 54 111.5 87t133.5 33q151 0 246.5 -92t95.5 -225v-727z" />
    <glyph glyph-name="i" unicode="i" horiz-adv-x="413" 
d="M158 0v1024h98v-1024h-98zM143 1270v143h127v-143h-127z" />
    <glyph glyph-name="j" unicode="j" horiz-adv-x="415" 
d="M258 1024v-1151q0 -110 -77.5 -186t-186.5 -76q-65 0 -137 37l49 73q42 -22 88 -22q71 0 119.5 49t48.5 119v1157h96zM147 1270v143h125v-143h-125z" />
    <glyph glyph-name="k" unicode="k" horiz-adv-x="847" 
d="M143 0v1434h95v-1434h-95zM672 0l-434 545l403 479h125l-401 -479l432 -545h-125z" />
    <glyph glyph-name="l" unicode="l" horiz-adv-x="385" 
d="M143 0v1434h99v-1434h-99z" />
    <glyph glyph-name="m" unicode="m" horiz-adv-x="1409" 
d="M762 0h-94v752q0 85 -60.5 144.5t-146.5 59.5q-93 0 -158 -62.5t-65 -152.5v-741h-95v1024h95v-106q99 126 247 126q86 0 148.5 -44t91.5 -95q114 139 274 139q116 0 196.5 -80.5t80.5 -197.5v-766h-94v752q0 85 -60.5 144.5t-146.5 59.5q-88 0 -150.5 -63t-62.5 -152
v-741z" />
    <glyph glyph-name="n" unicode="n" horiz-adv-x="958" 
d="M825 0h-94v711q0 100 -68.5 172.5t-164.5 72.5q-102 0 -181 -69.5t-79 -167.5v-719h-95v1024h95v-106q42 53 119.5 89.5t154.5 36.5q128 0 220.5 -93.5t92.5 -223.5v-727z" />
    <glyph glyph-name="o" unicode="o" 
d="M805 727v-430q0 -134 -94.5 -225.5t-245.5 -91.5q-153 0 -247.5 91.5t-94.5 225.5v430q0 134 94.5 225.5t247.5 91.5q151 0 245.5 -91.5t94.5 -225.5zM711 309v406q0 98 -72.5 169.5t-175.5 71.5t-174.5 -71.5t-71.5 -169.5v-406q0 -98 72 -169.5t176 -71.5
q102 0 174 71.5t72 169.5z" />
    <glyph glyph-name="p" unicode="p" horiz-adv-x="948" 
d="M143 -369v1393h95v-102q49 54 113.5 88t133.5 34q151 0 245.5 -91.5t94.5 -225.5v-430q0 -134 -94.5 -225.5t-245.5 -91.5q-69 0 -134.5 33.5t-112.5 86.5v-469h-95zM731 309v406q0 98 -72 169.5t-174 71.5q-101 0 -174 -72t-73 -169v-406q0 -98 71 -169.5t174 -71.5
t175.5 71.5t72.5 169.5z" />
    <glyph glyph-name="q" unicode="q" horiz-adv-x="948" 
d="M805 1024v-1393h-94v469q-47 -53 -113 -86.5t-135 -33.5q-151 0 -245.5 91.5t-94.5 225.5v430q0 134 94.5 225.5t245.5 91.5q69 0 134 -34t114 -88v102h94zM217 715v-406q0 -98 72.5 -169.5t175.5 -71.5t174.5 71.5t71.5 169.5v406q0 97 -73.5 169t-174.5 72
q-102 0 -174 -71.5t-72 -169.5z" />
    <glyph glyph-name="r" unicode="r" horiz-adv-x="575" 
d="M545 1042v-88q-27 2 -45 2q-103 0 -182.5 -76.5t-79.5 -168.5v-711h-95v1024h95v-139q33 56 111 107.5t163 51.5q25 0 33 -2z" />
    <glyph glyph-name="s" unicode="s" horiz-adv-x="839" 
d="M731 772h-98q-3 78 -63 131t-144 53q-75 0 -134 -47.5t-59 -117.5q0 -51 28 -89.5t72 -62.5t98 -46t108 -49t98 -61t72 -91.5t28 -133.5q0 -115 -91 -196.5t-212 -81.5h-20q-135 0 -223.5 92.5t-88.5 214.5h95q1 -91 66.5 -155t156.5 -64h12q87 0 148 55t61 139
q0 54 -28 94.5t-72 66.5t-98 48.5t-108 47.5t-98 56.5t-72 83t-28 119.5q0 119 86 192.5t211 73.5q68 0 125 -26t92.5 -67t56 -87.5t23.5 -91.5z" />
    <glyph glyph-name="t" unicode="t" horiz-adv-x="739" 
d="M41 936v88h149v287h95v-287h346v-88h-346v-700q0 -70 48.5 -119t119.5 -49q65 0 111.5 44.5t47.5 108.5h86q-1 -99 -73.5 -170t-171.5 -71q-109 0 -186 76t-77 186v694h-149z" />
    <glyph glyph-name="u" unicode="u" horiz-adv-x="958" 
d="M133 1024h94v-711q0 -100 69 -172.5t165 -72.5q102 0 181 69.5t79 167.5v719h94v-1024h-94v106q-42 -53 -120 -89.5t-155 -36.5q-128 0 -220.5 93.5t-92.5 223.5v727z" />
    <glyph glyph-name="v" unicode="v" horiz-adv-x="909" 
d="M219 1024v-379l217 -559h37l215 559v379h98v-375l-245 -649h-172l-246 643v381h96z" />
    <glyph glyph-name="w" unicode="w" horiz-adv-x="1232" 
d="M1016 647v377h94v-383l-137 -641h-176l-172 555h-17l-172 -555h-176l-137 641v383h94v-377l121 -561h27l182 573h139l182 -573h27z" />
    <glyph glyph-name="x" unicode="x" horiz-adv-x="825" 
d="M186 1024l228 -416l225 416h115l-283 -500l293 -524h-111l-239 438l-240 -438h-113l293 524l-280 500h112z" />
    <glyph glyph-name="y" unicode="y" horiz-adv-x="890" 
d="M143 1024l301 -866l301 866h105l-502 -1393h-96l137 383l-348 1010h102z" />
    <glyph glyph-name="z" unicode="z" horiz-adv-x="806" 
d="M709 928l-519 -840h525v-88h-623v98l518 838h-487v88h586v-96z" />
    <glyph glyph-name="braceleft" unicode="{" horiz-adv-x="630" 
d="M545 -291v-98q-146 3 -246 108.5t-100 255.5v387q0 52 -32.5 91.5t-82.5 42.5v98q49 3 82 41t33 90v367q0 141 103 246t243 116v-102q-105 -4 -172.5 -79t-67.5 -183v-349q0 -69 -40 -125t-85 -67v-8q45 -13 85 -69.5t40 -125.5v-375q0 -107 67.5 -182.5t172.5 -79.5z
" />
    <glyph glyph-name="bar" unicode="|" horiz-adv-x="448" 
d="M180 -369v1803h94v-1803h-94z" />
    <glyph glyph-name="braceright" unicode="}" horiz-adv-x="630" 
d="M86 -389v98q105 4 172.5 79.5t67.5 182.5v375q0 69 40 125.5t85 69.5v8q-45 11 -85 67t-40 125v349q0 108 -67.5 183t-172.5 79v102q140 -11 243 -116t103 -246v-367q0 -52 33 -90t82 -41v-98q-50 -3 -82.5 -42.5t-32.5 -91.5v-387q0 -150 -100 -255.5t-246 -108.5z" />
    <glyph glyph-name="asciitilde" unicode="~" horiz-adv-x="1193" 
d="M225 512h-92q14 82 83 141.5t167 59.5q50 0 111 -19t108.5 -42.5t103.5 -42.5t97 -19q55 0 94 32t57 74h95q-20 -80 -87.5 -140t-158.5 -60q-62 0 -143.5 30t-156 60t-120.5 30q-111 0 -158 -104z" />
    <glyph glyph-name="exclamdown" unicode="&#xa1;" horiz-adv-x="471" 
d="M164 881v143h143v-143h-143zM287 717v-1125h-107v1125h107z" />
    <glyph glyph-name="cent" unicode="&#xa2;" 
d="M434 -106v102q-142 13 -226.5 102.5t-84.5 216.5v402q0 124 84.5 212t226.5 103v98h94v-102q114 -23 188.5 -109t80.5 -198h-95q-6 99 -72 162t-165 63q-103 0 -175.5 -72t-72.5 -169v-379q0 -97 72 -169.5t176 -72.5q99 0 170 67t76 164h94q-6 -121 -81 -207t-196 -108
v-106h-94z" />
    <glyph glyph-name="sterling" unicode="&#xa3;" horiz-adv-x="958" 
d="M854 102v-102h-684v102h59v504h-127v105h127v430q0 129 92.5 221t221.5 92t221 -92t92 -221v-70h-106v80q0 85 -60 145t-143 60q-87 0 -148 -60t-61 -145v-440h264v-105h-264v-504h516z" />
    <glyph glyph-name="currency" unicode="&#xa4;" horiz-adv-x="1122" 
d="M926 166l-101 100q-131 -92 -264 -92t-264 92l-100 -100l-74 74l98 102q-88 124 -88 260q0 133 90 266l-100 101l74 73l100 -100q125 88 264 88t264 -88l101 100l73 -73l-100 -101q90 -133 90 -266q0 -132 -88 -260l98 -102zM330 373q97 -97 231 -97q132 0 229 98t97 230
q0 133 -97 230.5t-229 97.5t-230 -97.5t-98 -230.5q0 -134 97 -231z" />
    <glyph glyph-name="yen" unicode="&#xa5;" horiz-adv-x="974" 
d="M872 537v-103h-331v-434h-109v434h-332v103h332v135l-22 49h-310v104h262l-280 609h121l282 -629l287 629h121l-281 -609h260v-104h-309l-22 -49v-135h331z" />
    <glyph glyph-name="brokenbar" unicode="&#xa6;" horiz-adv-x="421" 
d="M164 727v707h94v-707h-94zM164 -369v709h94v-709h-94z" />
    <glyph glyph-name="section" unicode="&#xa7;" horiz-adv-x="1005" 
d="M188 258h107q7 -176 199 -176h8q98 0 145 46.5t47 107.5q0 48 -31 87t-80.5 67t-109.5 54.5t-119.5 57.5t-109 68t-80.5 95t-31 130q0 71 34 133.5t91 105.5q-59 81 -59 166q0 108 80.5 181t222.5 73h16q146 0 220 -75t79 -203h-106q-7 176 -199 176h-10q-97 0 -144 -47
t-47 -107q0 -49 31 -88t80.5 -67t109.5 -54.5t119.5 -57.5t109 -68t80.5 -94.5t31 -129.5q0 -143 -122 -242q57 -81 57 -164q0 -109 -80.5 -181t-224.5 -72h-15q-148 0 -221 74.5t-78 203.5zM764 621q0 53 -26 94.5t-74 72.5t-98 55.5t-118 58.5t-114 65q-92 -59 -92 -156
q0 -53 25.5 -93.5t73 -71t97.5 -54.5t118 -58.5t116 -68.5q92 61 92 156z" />
    <glyph glyph-name="dieresis" unicode="&#xa8;" horiz-adv-x="485" 
d="M0 1270v143h125v-143h-125zM360 1270v143h125v-143h-125z" />
    <glyph glyph-name="copyright" unicode="&#xa9;" horiz-adv-x="1427" 
d="M541 858v-274q0 -74 52.5 -130.5t127.5 -56.5q67 0 118 45.5t60 112.5h88q-5 -109 -78 -179.5t-188 -70.5q-120 0 -195 73.5t-75 180.5v326q0 106 75 179t195 73q108 0 180.5 -71.5t77.5 -176.5h-90q-3 72 -49 113.5t-119 41.5q-75 0 -127.5 -56t-52.5 -130zM696 82h35
q93 0 177 36t145 97.5t97 145.5t36 176v358q0 189 -133 323t-322 134h-35q-189 0 -322.5 -134t-133.5 -323v-358q0 -123 61 -228t166 -166t229 -61zM696 1454h35q152 0 281.5 -75.5t205.5 -205t76 -282.5v-350q0 -152 -76 -281.5t-205.5 -204.5t-281.5 -75h-35
q-153 0 -282.5 75.5t-205 204.5t-75.5 281v350q0 153 75.5 282.5t205 205t282.5 75.5z" />
    <glyph glyph-name="ordfeminine" unicode="&#xaa;" horiz-adv-x="651" 
d="M449 819v39q-55 -51 -142 -51q-80 2 -142.5 59t-62.5 138q0 80 59 136t144 62l144 10v35q0 49 -31.5 89t-81.5 40q-42 0 -73.5 -29.5t-39.5 -72.5h-92q11 81 66 130.5t139 49.5q95 0 149 -57t54 -144v-434h-90zM311 889q56 0 97 32.5t41 73.5v135l-142 -8
q-47 -3 -80.5 -36.5t-33.5 -79.5q0 -44 37 -80.5t81 -36.5zM539 696v-82h-418v82h418z" />
    <glyph glyph-name="guillemotleft" unicode="&#xab;" horiz-adv-x="952" 
d="M481 287h-108l-240 311l240 311h108l-241 -311zM819 287h-108l-242 311l242 311h108l-241 -311z" />
    <glyph glyph-name="logicalnot" unicode="&#xac;" horiz-adv-x="1163" 
d="M1030 844v-545h-102v440h-795v105h897z" />
    <glyph glyph-name="uni00AD" unicode="&#xad;" horiz-adv-x="1705" 
 />
    <glyph glyph-name="registered" unicode="&#xae;" horiz-adv-x="1427" 
d="M874 317l-133 308h-168v-308h-88v807h279q73 0 127.5 -55.5t54.5 -128.5v-129q0 -53 -31.5 -101.5t-78.5 -70.5l137 -322h-99zM860 805v137q0 41 -29.5 69.5t-68.5 28.5h-189v-335h189q39 0 68.5 29.5t29.5 70.5zM696 82h35q93 0 177 36t145 97.5t97 145.5t36 176v358
q0 189 -133 323t-322 134h-35q-189 0 -322.5 -134t-133.5 -323v-358q0 -123 61 -228t166 -166t229 -61zM696 1454h35q152 0 281.5 -75.5t205.5 -205t76 -282.5v-350q0 -152 -76 -281.5t-205.5 -204.5t-281.5 -75h-35q-153 0 -282.5 75.5t-205 204.5t-75.5 281v350
q0 153 75.5 282.5t205 205t282.5 75.5z" />
    <glyph glyph-name="macron" unicode="&#xaf;" horiz-adv-x="571" 
d="M0 1276v90h571v-90h-571z" />
    <glyph glyph-name="degree" unicode="&#xb0;" horiz-adv-x="774" 
d="M102 1169q0 117 84 201t201 84t201 -84t84 -201t-84 -200.5t-201 -83.5t-201 83.5t-84 200.5zM184 1167q0 -82 59 -141t142 -59q82 0 141.5 59t59.5 141q0 83 -59.5 142t-141.5 59q-83 0 -142 -59t-59 -142z" />
    <glyph glyph-name="plusminus" unicode="&#xb1;" horiz-adv-x="1163" 
d="M528 1024h105v-279h395v-102h-395v-276h-105v276h-395v102h395v279zM1030 258v-104h-897v104h897z" />
    <glyph glyph-name="twosuperior" unicode="&#xb2;" horiz-adv-x="690" 
d="M231 1223h-86q4 102 69.5 166.5t156.5 64.5q88 0 152.5 -62t64.5 -155q0 -51 -20 -95.5t-51.5 -78.5t-70.5 -66.5t-77.5 -64.5t-70 -66.5t-51.5 -79.5t-20 -96h361v-82h-455v82q0 60 20 112.5t51.5 90.5t69.5 72t76.5 65t70 62.5t51.5 70.5t20 82q0 53 -35 90t-86 37
q-57 0 -97 -42.5t-43 -106.5z" />
    <glyph glyph-name="threesuperior" unicode="&#xb3;" horiz-adv-x="694" 
d="M160 1352v82h381v-78l-150 -199q70 -18 120 -71t50 -121v-144q0 -89 -64.5 -155t-152.5 -66h-12q-90 0 -154.5 64t-64.5 157v17h92v-17q0 -59 38 -99t95 -40q56 0 94.5 40.5t38.5 98.5v144q0 45 -29 76.5t-71 31.5h-84v82l149 197h-276z" />
    <glyph glyph-name="acute" unicode="&#xb4;" horiz-adv-x="362" 
d="M111 1163h-111l219 250h143z" />
    <glyph glyph-name="mu" unicode="&#xb5;" horiz-adv-x="976" 
d="M143 -369v1393h97v-711q0 -100 67.5 -172.5t163.5 -72.5q103 0 181.5 69.5t78.5 167.5v719h96v-840q0 -39 23.5 -69.5t58.5 -36.5v-88q-56 2 -101 37.5t-65 93.5q-60 -73 -120.5 -107t-157.5 -34q-131 0 -225 131v-480h-97z" />
    <glyph glyph-name="paragraph" unicode="&#xb6;" horiz-adv-x="894" 
d="M442 -369v1028q-157 14 -263.5 122t-106.5 263q0 161 112.5 275.5t272.5 114.5h295v-1803h-93v1712h-124v-1712h-93z" />
    <glyph glyph-name="periodcentered" unicode="&#xb7;" horiz-adv-x="409" 
d="M133 528v144h143v-144h-143z" />
    <glyph glyph-name="cedilla" unicode="&#xb8;" horiz-adv-x="409" 
d="M100 -369v82h115q28 0 47 19t19 47q0 27 -19 45t-47 18h-92v158h82v-74h22q60 0 104 -43.5t44 -103.5q0 -61 -44 -104.5t-104 -43.5h-127z" />
    <glyph glyph-name="onesuperior" unicode="&#xb9;" horiz-adv-x="471" 
d="M92 1352v82h240v-826h-96v744h-144z" />
    <glyph glyph-name="ordmasculine" unicode="&#xba;" horiz-adv-x="643" 
d="M541 1253v-245q0 -84 -61.5 -142.5t-155.5 -58.5q-96 0 -159 58.5t-63 142.5v245q0 84 63 142.5t159 58.5q94 0 155.5 -58.5t61.5 -142.5zM451 1008v245q0 46 -38.5 82.5t-90.5 36.5q-51 0 -89 -36.5t-38 -82.5v-245q0 -46 38.5 -82.5t90.5 -36.5q51 0 89 36.5t38 82.5z
M539 696v-82h-433v82h433z" />
    <glyph glyph-name="guillemotright" unicode="&#xbb;" horiz-adv-x="952" 
d="M580 287h-109l242 311l-242 311h109l239 -311zM242 287h-109l242 311l-242 311h109l241 -311z" />
    <glyph glyph-name="onequarter" unicode="&#xbc;" horiz-adv-x="1505" 
d="M301 0l719 1436h102l-719 -1436h-102zM868 184v86l256 555h99l-260 -555h258v222h92v-222h69v-86h-69v-184h-92v184h-353zM123 1352v82h239v-826h-96v744h-143z" />
    <glyph glyph-name="onehalf" unicode="&#xbd;" horiz-adv-x="1546" 
d="M301 0l719 1436h102l-719 -1436h-102zM123 1352v82h239v-826h-96v744h-143zM1067 614h-86q4 102 69 167t156 65q88 0 152.5 -62t64.5 -155q0 -51 -20 -95.5t-51.5 -78.5t-70 -66.5t-77 -64.5t-70 -66.5t-51.5 -79.5t-20 -96h360v-82h-454v82q0 60 19.5 112.5t51.5 90.5
t70 72t76 65t70 62.5t51.5 70.5t19.5 82q0 53 -35 90t-86 37q-57 0 -96.5 -42.5t-42.5 -107.5z" />
    <glyph glyph-name="threequarters" unicode="&#xbe;" horiz-adv-x="1644" 
d="M440 0l719 1436h103l-719 -1436h-103zM1008 184v86l256 555h98l-260 -555h258v222h92v-222h70v-86h-70v-184h-92v184h-352zM170 1352v82h381v-78l-150 -199q70 -18 120 -71t50 -121v-144q0 -89 -64.5 -155t-152.5 -66h-12q-90 0 -154.5 64t-64.5 157v17h92v-17
q0 -59 38 -99t95 -40q56 0 94.5 40.5t38.5 98.5v144q0 45 -29 76.5t-71 31.5h-84v82l149 197h-276z" />
    <glyph glyph-name="questiondown" unicode="&#xbf;" horiz-adv-x="892" 
d="M705 -68h106q-3 -160 -108 -261t-257 -101q-156 0 -260 99t-104 261q0 77 18.5 139.5t48.5 106.5t66 84.5t72.5 83.5t67 92t49.5 121t20 160h104q-1 -99 -20 -179t-49 -133.5t-66 -98.5t-71.5 -84.5t-65 -80.5t-48 -97t-18.5 -124q0 -105 74.5 -176.5t181.5 -71.5
q108 0 181 74.5t78 185.5zM547 1024v-143h-144v143h144z" />
    <glyph glyph-name="Agrave" unicode="&#xc0;" horiz-adv-x="1019" 
d="M627 1573h-111l-252 250h144zM399 1434h222l256 -873v-561h-107v489h-520v-489h-107v561zM764 588l-215 747h-78l-215 -747h508z" />
    <glyph glyph-name="Aacute" unicode="&#xc1;" horiz-adv-x="1019" 
d="M500 1573h-111l219 250h144zM399 1434h222l256 -873v-561h-107v489h-520v-489h-107v561zM764 588l-215 747h-78l-215 -747h508z" />
    <glyph glyph-name="Acircumflex" unicode="&#xc2;" horiz-adv-x="1019" 
d="M399 1434h222l256 -873v-561h-107v489h-520v-489h-107v561zM764 588l-215 747h-78l-215 -747h508zM365 1573h-111l182 250h144l186 -250h-113l-145 178z" />
    <glyph glyph-name="Atilde" unicode="&#xc3;" horiz-adv-x="1019" 
d="M399 1434h222l256 -873v-561h-107v489h-520v-489h-107v561zM764 588l-215 747h-78l-215 -747h508zM291 1618h-86q8 71 60 128.5t118 57.5q47 0 133.5 -51t126.5 -51q35 0 57 27.5t27 62.5h86q-8 -72 -57.5 -129t-112.5 -57q-40 0 -88.5 25.5t-94 51t-77.5 25.5
q-36 0 -60.5 -26.5t-31.5 -63.5z" />
    <glyph glyph-name="Adieresis" unicode="&#xc4;" horiz-adv-x="1019" 
d="M399 1434h222l256 -873v-561h-107v489h-520v-489h-107v561zM764 588l-215 747h-78l-215 -747h508zM266 1679v144h125v-144h-125zM627 1679v144h125v-144h-125z" />
    <glyph glyph-name="Aring" unicode="&#xc5;" horiz-adv-x="1019" 
d="M399 1434h222l256 -873v-561h-107v489h-520v-489h-107v561zM764 588l-215 747h-78l-215 -747h508zM358 1706q0 63 44 107.5t106 44.5t106.5 -44.5t44.5 -107.5q0 -61 -44.5 -105.5t-106.5 -44.5t-106 44t-44 106zM432 1706q0 -33 21.5 -54.5t54.5 -21.5q35 0 56.5 21.5
t21.5 54.5q0 35 -21.5 56.5t-56.5 21.5q-34 0 -55 -21.5t-21 -56.5z" />
    <glyph glyph-name="AE" unicode="&#xc6;" horiz-adv-x="1314" 
d="M399 1434h795v-99h-436v-528h387v-98h-387v-611h454v-98h-561v489h-401v-489h-107v569zM469 1335l-217 -747h399v747h-182z" />
    <glyph glyph-name="Ccedilla" unicode="&#xc7;" horiz-adv-x="997" 
d="M874 346v-8q0 -147 -101 -250t-247 -108v-54h23q60 0 103.5 -43.5t43.5 -103.5q0 -61 -43.5 -104.5t-103.5 -43.5h-127v82h115q28 0 46.5 19t18.5 47t-18.5 45.5t-46.5 17.5h-93v144q-129 20 -215 120t-86 234v756q0 149 105.5 253.5t253.5 104.5h14q149 0 253.5 -104.5
t104.5 -253.5h-106q-2 107 -76.5 181.5t-181.5 74.5q-110 0 -185 -74.5t-75 -183.5v-756q0 -109 75 -184.5t185 -75.5q109 0 183.5 74.5t74.5 183.5v10h106z" />
    <glyph glyph-name="Egrave" unicode="&#xc8;" 
d="M608 1573h-110l-252 250h143zM164 1434h643v-99h-537v-528h488v-98h-488v-611h555v-98h-661v1434z" />
    <glyph glyph-name="Eacute" unicode="&#xc9;" 
d="M481 1573h-110l219 250h143zM164 1434h643v-99h-537v-528h488v-98h-488v-611h555v-98h-661v1434z" />
    <glyph glyph-name="Ecircumflex" unicode="&#xca;" 
d="M164 1434h643v-99h-537v-528h488v-98h-488v-611h555v-98h-661v1434zM324 1573h-111l182 250h144l186 -250h-113l-145 178z" />
    <glyph glyph-name="Edieresis" unicode="&#xcb;" 
d="M164 1434h643v-99h-537v-528h488v-98h-488v-611h555v-98h-661v1434zM225 1679v144h125v-144h-125zM586 1679v144h125v-144h-125z" />
    <glyph glyph-name="Igrave" unicode="&#xcc;" horiz-adv-x="434" 
d="M270 1434v-1434h-106v1434h106zM332 1573h-111l-252 250h144z" />
    <glyph glyph-name="Iacute" unicode="&#xcd;" horiz-adv-x="434" 
d="M270 1434v-1434h-106v1434h106zM217 1573h-111l220 250h143z" />
    <glyph glyph-name="Icircumflex" unicode="&#xce;" horiz-adv-x="434" 
d="M270 1434v-1434h-106v1434h106zM72 1573h-111l182 250h144l186 -250h-113l-145 178z" />
    <glyph glyph-name="Idieresis" unicode="&#xcf;" horiz-adv-x="434" 
d="M270 1434v-1434h-106v1434h106zM-25 1679v144h125v-144h-125zM336 1679v144h125v-144h-125z" />
    <glyph glyph-name="Eth" unicode="&#xd0;" horiz-adv-x="1019" 
d="M877 1073v-713q0 -149 -105 -254.5t-254 -105.5h-352v709h-125v98h125v627h352q149 0 254 -106t105 -255zM492 807v-98h-220v-611h240q109 0 183.5 74.5t74.5 183.5v715q0 110 -74.5 185t-183.5 75h-240v-524h220z" />
    <glyph glyph-name="Ntilde" unicode="&#xd1;" horiz-adv-x="1060" 
d="M311 1618h-86q8 71 60 128.5t118 57.5q47 0 134 -51t127 -51q35 0 57 27.5t27 62.5h86q-8 -72 -57.5 -129t-112.5 -57q-40 0 -88.5 25.5t-94.5 51t-78 25.5q-36 0 -60.5 -26.5t-31.5 -63.5zM793 1434h104v-1434h-133l-463 1145l-33 98l-8 -2l8 -104v-1137h-104v1434h133
l465 -1153l31 -91l8 3l-8 90v1151z" />
    <glyph glyph-name="Ograve" unicode="&#xd2;" horiz-adv-x="1042" 
d="M899 1096v-758q0 -149 -104.5 -253.5t-253.5 -104.5h-39q-149 0 -254 105.5t-105 254.5v756q0 149 105 253.5t254 104.5h39q149 0 253.5 -104.5t104.5 -253.5zM793 336v758q0 109 -74.5 183.5t-183.5 74.5h-27q-109 0 -183.5 -74.5t-74.5 -183.5v-756q0 -109 74.5 -184.5
t183.5 -75.5h27q109 0 183.5 74.5t74.5 183.5zM639 1573h-111l-252 250h144z" />
    <glyph glyph-name="Oacute" unicode="&#xd3;" horiz-adv-x="1042" 
d="M899 1096v-758q0 -149 -104.5 -253.5t-253.5 -104.5h-39q-149 0 -254 105.5t-105 254.5v756q0 149 105 253.5t254 104.5h39q149 0 253.5 -104.5t104.5 -253.5zM793 336v758q0 109 -74.5 183.5t-183.5 74.5h-27q-109 0 -183.5 -74.5t-74.5 -183.5v-756q0 -109 74.5 -184.5
t183.5 -75.5h27q109 0 183.5 74.5t74.5 183.5zM512 1573h-111l220 250h143z" />
    <glyph glyph-name="Ocircumflex" unicode="&#xd4;" horiz-adv-x="1042" 
d="M899 1096v-758q0 -149 -104.5 -253.5t-253.5 -104.5h-39q-149 0 -254 105.5t-105 254.5v756q0 149 105 253.5t254 104.5h39q149 0 253.5 -104.5t104.5 -253.5zM793 336v758q0 109 -74.5 183.5t-183.5 74.5h-27q-109 0 -183.5 -74.5t-74.5 -183.5v-756q0 -109 74.5 -184.5
t183.5 -75.5h27q109 0 183.5 74.5t74.5 183.5zM375 1573h-111l182 250h144l186 -250h-112l-146 178z" />
    <glyph glyph-name="Otilde" unicode="&#xd5;" horiz-adv-x="1042" 
d="M899 1096v-758q0 -149 -104.5 -253.5t-253.5 -104.5h-39q-149 0 -254 105.5t-105 254.5v756q0 149 105 253.5t254 104.5h39q149 0 253.5 -104.5t104.5 -253.5zM793 336v758q0 109 -74.5 183.5t-183.5 74.5h-27q-109 0 -183.5 -74.5t-74.5 -183.5v-756q0 -109 74.5 -184.5
t183.5 -75.5h27q109 0 183.5 74.5t74.5 183.5zM303 1618h-86q8 71 60 128.5t118 57.5q47 0 133.5 -51t126.5 -51q35 0 57 27.5t27 62.5h86q-8 -72 -57.5 -129t-112.5 -57q-40 0 -88.5 25.5t-94 51t-77.5 25.5q-36 0 -60.5 -26.5t-31.5 -63.5z" />
    <glyph glyph-name="Odieresis" unicode="&#xd6;" horiz-adv-x="1042" 
d="M899 1096v-758q0 -149 -104.5 -253.5t-253.5 -104.5h-39q-149 0 -254 105.5t-105 254.5v756q0 149 105 253.5t254 104.5h39q149 0 253.5 -104.5t104.5 -253.5zM793 336v758q0 109 -74.5 183.5t-183.5 74.5h-27q-109 0 -183.5 -74.5t-74.5 -183.5v-756q0 -109 74.5 -184.5
t183.5 -75.5h27q109 0 183.5 74.5t74.5 183.5zM279 1679v144h124v-144h-124zM639 1679v144h125v-144h-125z" />
    <glyph glyph-name="multiply" unicode="&#xd7;" horiz-adv-x="1017" 
d="M133 901l72 72l305 -301l301 301l74 -72l-303 -303l303 -301l-74 -74l-301 303l-303 -301l-74 72l303 301z" />
    <glyph glyph-name="Oslash" unicode="&#xd8;" horiz-adv-x="1042" 
d="M899 1096v-758q0 -149 -104.5 -253.5t-253.5 -104.5h-39q-103 0 -193 55l-14 -35h-100l38 98q-90 111 -90 242v756q0 149 105 253.5t254 104.5h39q106 0 192 -55l15 35h98l-39 -99q92 -106 92 -239zM793 336v758q0 64 -29 123l-414 -1086q65 -53 158 -53h27
q109 0 183.5 74.5t74.5 183.5zM250 338q0 -68 26 -119l416 1079q-63 54 -157 54h-27q-109 0 -183.5 -74.5t-74.5 -183.5v-756z" />
    <glyph glyph-name="Ugrave" unicode="&#xd9;" horiz-adv-x="1062" 
d="M803 1434h106v-1096q0 -149 -104.5 -253.5t-253.5 -104.5h-39q-148 0 -253 105.5t-105 254.5v1094h106v-1096q0 -109 75 -184.5t185 -75.5h25q109 0 183.5 74.5t74.5 183.5v1098zM649 1573h-110l-252 250h143z" />
    <glyph glyph-name="Uacute" unicode="&#xda;" horiz-adv-x="1062" 
d="M803 1434h106v-1096q0 -149 -104.5 -253.5t-253.5 -104.5h-39q-148 0 -253 105.5t-105 254.5v1094h106v-1096q0 -109 75 -184.5t185 -75.5h25q109 0 183.5 74.5t74.5 183.5v1098zM524 1573h-110l219 250h143z" />
    <glyph glyph-name="Ucircumflex" unicode="&#xdb;" horiz-adv-x="1062" 
d="M803 1434h106v-1096q0 -149 -104.5 -253.5t-253.5 -104.5h-39q-148 0 -253 105.5t-105 254.5v1094h106v-1096q0 -109 75 -184.5t185 -75.5h25q109 0 183.5 74.5t74.5 183.5v1098zM385 1573h-111l183 250h143l186 -250h-112l-146 178z" />
    <glyph glyph-name="Udieresis" unicode="&#xdc;" horiz-adv-x="1062" 
d="M803 1434h106v-1096q0 -149 -104.5 -253.5t-253.5 -104.5h-39q-148 0 -253 105.5t-105 254.5v1094h106v-1096q0 -109 75 -184.5t185 -75.5h25q109 0 183.5 74.5t74.5 183.5v1098zM289 1679v144h125v-144h-125zM649 1679v144h125v-144h-125z" />
    <glyph glyph-name="Yacute" unicode="&#xdd;" horiz-adv-x="933" 
d="M170 1434l297 -609l299 609h117l-361 -752v-682h-108v682l-363 752h119zM412 1573h-111l219 250h144z" />
    <glyph glyph-name="Thorn" unicode="&#xde;" horiz-adv-x="919" 
d="M164 0v1434h106v-217h258q123 0 211 -87.5t88 -211.5v-312q0 -126 -87.5 -213.5t-211.5 -87.5h-258v-305h-106zM719 600v315q0 82 -57.5 140.5t-139.5 58.5h-252v-711h252q82 0 139.5 57.5t57.5 139.5z" />
    <glyph glyph-name="germandbls" unicode="&#xdf;" horiz-adv-x="1046" 
d="M238 1090v-1088h-95v1090q0 151 100.5 256.5t243.5 105.5h17q140 0 238 -98.5t98 -229.5v-139q-97 -8 -161.5 -53.5t-64.5 -110.5q0 -43 19 -83t48.5 -72t66 -64t73 -67t66 -73.5t48.5 -90.5t19 -111q0 -119 -81.5 -200.5t-202.5 -81.5q-115 0 -196 82t-81 200v12h99v-24
q0 -75 53.5 -128.5t128.5 -53.5q76 0 130 53.5t54 128.5q0 50 -19 94t-49.5 77t-67 65t-73 65.5t-67 70t-49.5 86.5t-19 109q0 89 66 149t163 76v48q0 119 -71 197.5t-176 78.5q-107 0 -182.5 -79t-75.5 -197z" />
    <glyph glyph-name="agrave" unicode="&#xe0;" horiz-adv-x="905" 
d="M676 0v96q-122 -116 -273 -116q-128 0 -219.5 87t-91.5 218q0 129 88.5 219.5t220.5 99.5l275 21v90q0 101 -59 171t-160 70q-82 0 -136.5 -48.5t-74.5 -127.5h-96q18 117 100 190.5t207 73.5q149 0 232 -90t83 -227v-727h-96zM414 66q112 0 187 64.5t75 152.5v252
l-270 -17q-93 -6 -155.5 -72t-62.5 -159t66.5 -157t159.5 -64zM598 1163h-111l-251 250h143z" />
    <glyph glyph-name="aacute" unicode="&#xe1;" horiz-adv-x="905" 
d="M676 0v96q-122 -116 -273 -116q-128 0 -219.5 87t-91.5 218q0 129 88.5 219.5t220.5 99.5l275 21v90q0 101 -59 171t-160 70q-82 0 -136.5 -48.5t-74.5 -127.5h-96q18 117 100 190.5t207 73.5q149 0 232 -90t83 -227v-727h-96zM414 66q112 0 187 64.5t75 152.5v252
l-270 -17q-93 -6 -155.5 -72t-62.5 -159t66.5 -157t159.5 -64zM451 1163h-111l219 250h143z" />
    <glyph glyph-name="acircumflex" unicode="&#xe2;" horiz-adv-x="905" 
d="M676 0v96q-122 -116 -273 -116q-128 0 -219.5 87t-91.5 218q0 129 88.5 219.5t220.5 99.5l275 21v90q0 101 -59 171t-160 70q-82 0 -136.5 -48.5t-74.5 -127.5h-96q18 117 100 190.5t207 73.5q149 0 232 -90t83 -227v-727h-96zM414 66q112 0 187 64.5t75 152.5v252
l-270 -17q-93 -6 -155.5 -72t-62.5 -159t66.5 -157t159.5 -64zM307 1163h-110l182 250h143l187 -250h-113l-145 178z" />
    <glyph glyph-name="atilde" unicode="&#xe3;" horiz-adv-x="905" 
d="M676 0v96q-122 -116 -273 -116q-128 0 -219.5 87t-91.5 218q0 129 88.5 219.5t220.5 99.5l275 21v90q0 101 -59 171t-160 70q-82 0 -136.5 -48.5t-74.5 -127.5h-96q18 117 100 190.5t207 73.5q149 0 232 -90t83 -227v-727h-96zM414 66q112 0 187 64.5t75 152.5v252
l-270 -17q-93 -6 -155.5 -72t-62.5 -159t66.5 -157t159.5 -64zM233 1208h-86q8 71 60.5 129t118.5 58q47 0 133.5 -51.5t126.5 -51.5q35 0 57 27.5t27 62.5h86q-8 -72 -57.5 -129t-112.5 -57q-40 0 -88.5 25.5t-94 51t-77.5 25.5q-36 0 -61.5 -27t-31.5 -63z" />
    <glyph glyph-name="adieresis" unicode="&#xe4;" horiz-adv-x="905" 
d="M676 0v96q-122 -116 -273 -116q-128 0 -219.5 87t-91.5 218q0 129 88.5 219.5t220.5 99.5l275 21v90q0 101 -59 171t-160 70q-82 0 -136.5 -48.5t-74.5 -127.5h-96q18 117 100 190.5t207 73.5q149 0 232 -90t83 -227v-727h-96zM414 66q112 0 187 64.5t75 152.5v252
l-270 -17q-93 -6 -155.5 -72t-62.5 -159t66.5 -157t159.5 -64zM209 1270v143h125v-143h-125zM569 1270v143h125v-143h-125z" />
    <glyph glyph-name="aring" unicode="&#xe5;" horiz-adv-x="905" 
d="M676 0v96q-122 -116 -273 -116q-128 0 -219.5 87t-91.5 218q0 129 88.5 219.5t220.5 99.5l275 21v90q0 101 -59 171t-160 70q-82 0 -136.5 -48.5t-74.5 -127.5h-96q18 117 100 190.5t207 73.5q149 0 232 -90t83 -227v-727h-96zM414 66q112 0 187 64.5t75 152.5v252
l-270 -17q-93 -6 -155.5 -72t-62.5 -159t66.5 -157t159.5 -64zM301 1296q0 63 44 107.5t106 44.5t106.5 -44.5t44.5 -107.5q0 -61 -44.5 -105t-106.5 -44t-106 44t-44 105zM375 1296q0 -32 21.5 -53.5t54.5 -21.5q35 0 56 21t21 54q0 35 -21 56.5t-56 21.5q-34 0 -55 -21.5
t-21 -56.5z" />
    <glyph glyph-name="ae" unicode="&#xe6;" horiz-adv-x="1374" 
d="M1157 299h94q0 -131 -84.5 -225t-218.5 -94q-101 0 -171.5 47.5t-100.5 99.5q-55 -77 -121.5 -112t-171.5 -35q-115 0 -203 88.5t-88 216.5q0 127 89.5 217t207.5 90h238v123q0 101 -54 171t-143 70q-78 0 -128 -48t-64 -128h-91q15 117 91.5 190.5t191.5 73.5
q78 0 143 -38.5t107 -106.5q45 68 115 106.5t153 38.5q134 0 218.5 -92t84.5 -225v-221h-528v-197q0 -98 65 -169.5t158 -71.5q90 0 149 66t62 165zM395 68q101 0 166.5 60t65.5 148v230h-232q-85 0 -148 -63.5t-63 -155.5t63 -155.5t148 -63.5zM946 956q-93 0 -158 -68.5
t-65 -164.5v-131h434v123q0 99 -59.5 170t-151.5 71z" />
    <glyph glyph-name="ccedilla" unicode="&#xe7;" horiz-adv-x="907" 
d="M362 -369v82h115q28 0 47 19t19 47q0 27 -19 45t-47 18h-92v146q-121 23 -191.5 108.5t-70.5 202.5v428q0 134 94.5 225.5t247.5 91.5q139 0 231.5 -90.5t100.5 -222.5h-97q-5 99 -70.5 162t-164.5 63q-103 0 -175.5 -71.5t-72.5 -169.5v-406q0 -98 72 -169.5t176 -71.5
q100 0 171 66.5t75 164.5h94q-8 -137 -101 -227.5t-237 -91.5v-54h22q60 0 104 -43.5t44 -103.5q0 -61 -44 -104.5t-104 -43.5h-127z" />
    <glyph glyph-name="egrave" unicode="&#xe8;" 
d="M711 299h94q-8 -140 -101 -229.5t-239 -89.5q-153 0 -247.5 91.5t-94.5 225.5v430q0 134 94.5 225.5t247.5 91.5q151 0 245.5 -91.5t94.5 -225.5v-244h-588v-174q0 -98 71.5 -169.5t174.5 -71.5q101 0 172 66.5t76 164.5zM217 715v-144h494v144q0 98 -72.5 169.5
t-175.5 71.5t-174.5 -71.5t-71.5 -169.5zM592 1163h-111l-252 250h144z" />
    <glyph glyph-name="eacute" unicode="&#xe9;" 
d="M711 299h94q-8 -140 -101 -229.5t-239 -89.5q-153 0 -247.5 91.5t-94.5 225.5v430q0 134 94.5 225.5t247.5 91.5q151 0 245.5 -91.5t94.5 -225.5v-244h-588v-174q0 -98 71.5 -169.5t174.5 -71.5q101 0 172 66.5t76 164.5zM217 715v-144h494v144q0 98 -72.5 169.5
t-175.5 71.5t-174.5 -71.5t-71.5 -169.5zM461 1163h-111l219 250h144z" />
    <glyph glyph-name="ecircumflex" unicode="&#xea;" 
d="M711 299h94q-8 -140 -101 -229.5t-239 -89.5q-153 0 -247.5 91.5t-94.5 225.5v430q0 134 94.5 225.5t247.5 91.5q151 0 245.5 -91.5t94.5 -225.5v-244h-588v-174q0 -98 71.5 -169.5t174.5 -71.5q101 0 172 66.5t76 164.5zM217 715v-144h494v144q0 98 -72.5 169.5
t-175.5 71.5t-174.5 -71.5t-71.5 -169.5zM317 1163h-110l182 250h143l187 -250h-113l-145 178z" />
    <glyph glyph-name="edieresis" unicode="&#xeb;" 
d="M711 299h94q-8 -140 -101 -229.5t-239 -89.5q-153 0 -247.5 91.5t-94.5 225.5v430q0 134 94.5 225.5t247.5 91.5q151 0 245.5 -91.5t94.5 -225.5v-244h-588v-174q0 -98 71.5 -169.5t174.5 -71.5q101 0 172 66.5t76 164.5zM217 715v-144h494v144q0 98 -72.5 169.5
t-175.5 71.5t-174.5 -71.5t-71.5 -169.5zM221 1270v143h125v-143h-125zM582 1270v143h125v-143h-125z" />
    <glyph glyph-name="igrave" unicode="&#xec;" horiz-adv-x="413" 
d="M158 0v1024h98v-1024h-98zM324 1163h-111l-252 250h143z" />
    <glyph glyph-name="iacute" unicode="&#xed;" horiz-adv-x="413" 
d="M158 0v1024h98v-1024h-98zM211 1163h-111l219 250h144z" />
    <glyph glyph-name="icircumflex" unicode="&#xee;" horiz-adv-x="413" 
d="M158 0v1024h98v-1024h-98zM63 1163h-110l182 250h144l186 -250h-113l-145 178z" />
    <glyph glyph-name="idieresis" unicode="&#xef;" horiz-adv-x="413" 
d="M158 0v1024h98v-1024h-98zM-35 1270v143h125v-143h-125zM326 1270v143h125v-143h-125z" />
    <glyph glyph-name="eth" unicode="&#xf0;" horiz-adv-x="1011" 
d="M987 1319v-94l-137 -64q10 -44 10 -92v-727q0 -151 -105.5 -256.5t-256.5 -105.5h-13q-151 0 -256.5 106.5t-105.5 257.5v234q0 151 105.5 256.5t256.5 105.5h13q81 0 150.5 -50.5t105.5 -107.5v285q0 21 -6 57l-203 -73v90l172 65q-86 127 -217 127h-140v101h146
q96 0 179 -52t134 -139zM504 842h-12q-110 0 -186.5 -78t-76.5 -189v-233q0 -110 76.5 -186t186.5 -76t186 75t76 185v235q0 107 -78 187t-172 80z" />
    <glyph glyph-name="ntilde" unicode="&#xf1;" horiz-adv-x="958" 
d="M825 0h-94v711q0 100 -68.5 172.5t-164.5 72.5q-102 0 -181 -69.5t-79 -167.5v-719h-95v1024h95v-106q42 53 119.5 89.5t154.5 36.5q128 0 220.5 -93.5t92.5 -223.5v-727zM260 1208h-86q8 72 60.5 129.5t117.5 57.5q47 0 133.5 -51.5t126.5 -51.5q35 0 57 27.5t27 62.5
h86q-8 -72 -57.5 -129t-112.5 -57q-40 0 -88.5 25.5t-94 51t-77.5 25.5q-36 0 -60.5 -26.5t-31.5 -63.5z" />
    <glyph glyph-name="ograve" unicode="&#xf2;" 
d="M805 297v430q0 134 -94.5 225.5t-245.5 91.5q-153 0 -247.5 -91.5t-94.5 -225.5v-430q0 -134 94.5 -225.5t247.5 -91.5q151 0 245.5 91.5t94.5 225.5zM711 715v-406q0 -98 -72 -169.5t-174 -71.5q-104 0 -176 71.5t-72 169.5v406q0 98 71.5 169.5t174.5 71.5t175.5 -71.5
t72.5 -169.5zM582 1163h-111l-252 250h143z" />
    <glyph glyph-name="oacute" unicode="&#xf3;" 
d="M805 297v430q0 134 -94.5 225.5t-245.5 91.5q-153 0 -247.5 -91.5t-94.5 -225.5v-430q0 -134 94.5 -225.5t247.5 -91.5q151 0 245.5 91.5t94.5 225.5zM711 715v-406q0 -98 -72 -169.5t-174 -71.5q-104 0 -176 71.5t-72 169.5v406q0 98 71.5 169.5t174.5 71.5t175.5 -71.5
t72.5 -169.5zM457 1163h-111l219 250h144z" />
    <glyph glyph-name="ocircumflex" unicode="&#xf4;" 
d="M805 297v430q0 134 -94.5 225.5t-245.5 91.5q-153 0 -247.5 -91.5t-94.5 -225.5v-430q0 -134 94.5 -225.5t247.5 -91.5q151 0 245.5 91.5t94.5 225.5zM711 715v-406q0 -98 -72 -169.5t-174 -71.5q-104 0 -176 71.5t-72 169.5v406q0 98 71.5 169.5t174.5 71.5t175.5 -71.5
t72.5 -169.5zM317 1163h-110l182 250h143l187 -250h-113l-145 178z" />
    <glyph glyph-name="otilde" unicode="&#xf5;" 
d="M805 297v430q0 134 -94.5 225.5t-245.5 91.5q-153 0 -247.5 -91.5t-94.5 -225.5v-430q0 -134 94.5 -225.5t247.5 -91.5q151 0 245.5 91.5t94.5 225.5zM711 715v-406q0 -98 -72 -169.5t-174 -71.5q-104 0 -176 71.5t-72 169.5v406q0 98 71.5 169.5t174.5 71.5t175.5 -71.5
t72.5 -169.5zM246 1208h-86q8 72 60.5 129.5t117.5 57.5q47 0 133.5 -51.5t126.5 -51.5q35 0 57 27.5t27 62.5h86q-8 -72 -57.5 -129t-112.5 -57q-40 0 -88.5 25.5t-94 51t-77.5 25.5q-36 0 -60.5 -26.5t-31.5 -63.5z" />
    <glyph glyph-name="odieresis" unicode="&#xf6;" 
d="M805 297v430q0 134 -94.5 225.5t-245.5 91.5q-153 0 -247.5 -91.5t-94.5 -225.5v-430q0 -134 94.5 -225.5t247.5 -91.5q151 0 245.5 91.5t94.5 225.5zM711 715v-406q0 -98 -72 -169.5t-174 -71.5q-104 0 -176 71.5t-72 169.5v406q0 98 71.5 169.5t174.5 71.5t175.5 -71.5
t72.5 -169.5zM221 1270v143h125v-143h-125zM582 1270v143h125v-143h-125z" />
    <glyph glyph-name="divide" unicode="&#xf7;" horiz-adv-x="1161" 
d="M133 629h895v-103h-895v103zM508 162v143h143v-143h-143zM508 854v143h143v-143h-143z" />
    <glyph glyph-name="oslash" unicode="&#xf8;" 
d="M805 727v-430q0 -134 -94.5 -225.5t-245.5 -91.5q-100 0 -201 53l-16 -33h-96l47 88q-76 88 -76 209v430q0 134 94.5 225.5t247.5 91.5q108 0 197 -53l16 33h96l-45 -90q76 -92 76 -207zM711 309v406q0 62 -33 121l-369 -717q70 -51 156 -51q102 0 174 71.5t72 169.5z
M217 309q0 -57 33 -119l366 713q-68 53 -153 53q-103 0 -174.5 -71.5t-71.5 -169.5v-406z" />
    <glyph glyph-name="ugrave" unicode="&#xf9;" horiz-adv-x="958" 
d="M133 1024h94v-711q0 -100 69 -172.5t165 -72.5q102 0 181 69.5t79 167.5v719h94v-1024h-94v106q-42 -53 -120 -89.5t-155 -36.5q-128 0 -220.5 93.5t-92.5 223.5v727zM598 1163h-111l-251 250h143z" />
    <glyph glyph-name="uacute" unicode="&#xfa;" horiz-adv-x="958" 
d="M133 1024h94v-711q0 -100 69 -172.5t165 -72.5q102 0 181 69.5t79 167.5v719h94v-1024h-94v106q-42 -53 -120 -89.5t-155 -36.5q-128 0 -220.5 93.5t-92.5 223.5v727zM457 1163h-111l219 250h144z" />
    <glyph glyph-name="ucircumflex" unicode="&#xfb;" horiz-adv-x="958" 
d="M133 1024h94v-711q0 -100 69 -172.5t165 -72.5q102 0 181 69.5t79 167.5v719h94v-1024h-94v106q-42 -53 -120 -89.5t-155 -36.5q-128 0 -220.5 93.5t-92.5 223.5v727zM334 1163h-111l183 250h143l186 -250h-112l-146 178z" />
    <glyph glyph-name="udieresis" unicode="&#xfc;" horiz-adv-x="958" 
d="M133 1024h94v-711q0 -100 69 -172.5t165 -72.5q102 0 181 69.5t79 167.5v719h94v-1024h-94v106q-42 -53 -120 -89.5t-155 -36.5q-128 0 -220.5 93.5t-92.5 223.5v727zM236 1270v143h124v-143h-124zM596 1270v143h125v-143h-125z" />
    <glyph glyph-name="yacute" unicode="&#xfd;" horiz-adv-x="890" 
d="M143 1024l301 -866l301 866h105l-502 -1393h-96l137 383l-348 1010h102zM430 1163h-111l220 250h143z" />
    <glyph glyph-name="thorn" unicode="&#xfe;" horiz-adv-x="948" 
d="M143 -369v1805h95v-514q103 122 247 122q151 0 245.5 -91.5t94.5 -225.5v-430q0 -134 -94.5 -225.5t-245.5 -91.5q-69 0 -134.5 33.5t-112.5 86.5v-469h-95zM731 309v406q0 98 -72 169.5t-174 71.5q-101 0 -174 -69t-73 -164v-414q0 -98 71 -169.5t174 -71.5t175.5 71.5
t72.5 169.5z" />
    <glyph glyph-name="ydieresis" unicode="&#xff;" horiz-adv-x="890" 
d="M143 1024l301 -866l301 866h105l-502 -1393h-96l137 383l-348 1010h102zM203 1270v143h125v-143h-125zM563 1270v143h125v-143h-125z" />
    <glyph glyph-name="Lslash" unicode="&#x141;" horiz-adv-x="808" 
d="M594 934l-2 -117l-307 -180v-539h473v-98h-580v575l-127 -73v116l127 74v742h107v-680z" />
    <glyph glyph-name="lslash" unicode="&#x142;" horiz-adv-x="452" 
d="M414 936v-100l-152 -88v-748h-94v690l-125 -72v103l125 72v641h94v-584z" />
    <glyph glyph-name="OE" unicode="&#x152;" horiz-adv-x="1323" 
d="M504 1434h690v-99h-434v-528h385v-98h-385v-611h450v-98h-706q-149 0 -255 106.5t-106 255.5v711q0 149 106 255t255 106zM250 360q0 -110 75 -186t185 -76h143v1233h-143q-110 0 -185 -75t-75 -185v-711z" />
    <glyph glyph-name="oe" unicode="&#x153;" horiz-adv-x="1386" 
d="M1174 299h90q-8 -140 -91.5 -229.5t-214.5 -89.5q-82 0 -151.5 40t-114.5 109q-46 -70 -113.5 -109.5t-148.5 -39.5q-136 0 -221.5 91.5t-85.5 225.5v430q0 134 85.5 225.5t221.5 91.5q81 0 149 -40t113 -111q45 70 114.5 110.5t151.5 40.5q135 0 220.5 -92t85.5 -225
v-244h-525v-174q0 -98 62.5 -169.5t154.5 -71.5q91 0 152 66t66 165zM645 309v414q0 96 -63 164.5t-154 68.5q-93 0 -155 -71t-62 -170v-406q0 -99 62 -170t157 -71q92 0 153.5 71t61.5 170zM739 723v-152h435v144q0 99 -62.5 170t-155.5 71q-91 0 -154 -68.5t-63 -164.5z
" />
    <glyph glyph-name="Scaron" unicode="&#x160;" horiz-adv-x="1001" 
d="M760 1096h104q-3 158 -107 258t-255 100q-149 0 -254 -102.5t-105 -253.5q0 -71 21.5 -129t58 -99t83.5 -75.5t99.5 -63.5t104.5 -57t99 -61.5t83.5 -73t58 -95t21.5 -122.5q0 -99 -75 -171.5t-183 -72.5h-27q-109 0 -183.5 75.5t-74.5 184.5v49h-106v-49
q0 -149 104.5 -253.5t253.5 -104.5h41q148 0 252.5 104.5t104.5 253.5q0 78 -21.5 143.5t-58 112t-83.5 85.5t-99 69t-104.5 58.5t-99.5 58.5t-83.5 63.5t-58 79t-21.5 100.5q0 103 73.5 173.5t178.5 70.5q108 0 180.5 -73t77.5 -183zM246 1823h110l144 -178l145 178h111
l-185 -250h-143z" />
    <glyph glyph-name="scaron" unicode="&#x161;" horiz-adv-x="839" 
d="M731 772h-98q-3 78 -63 131t-144 53q-75 0 -134 -47.5t-59 -117.5q0 -51 28 -89.5t72 -62.5t98 -46t108 -49t98 -61t72 -91.5t28 -133.5q0 -115 -91 -196.5t-212 -81.5h-20q-135 0 -223.5 92.5t-88.5 214.5h95q1 -91 66.5 -155t156.5 -64h12q87 0 148 55t61 139
q0 54 -28 94.5t-72 66.5t-98 48.5t-108 47.5t-98 56.5t-72 83t-28 119.5q0 119 86 192.5t211 73.5q68 0 125 -26t92.5 -67t56 -87.5t23.5 -91.5zM164 1413h110l144 -178l145 178h111l-185 -250h-143z" />
    <glyph glyph-name="Ydieresis" unicode="&#x178;" horiz-adv-x="933" 
d="M170 1434l297 -609l299 609h117l-361 -752v-682h-108v682l-363 752h119zM223 1679v144h125v-144h-125zM584 1679v144h125v-144h-125z" />
    <glyph glyph-name="Zcaron" unicode="&#x17d;" horiz-adv-x="952" 
d="M850 1323l-621 -1225h619v-98h-735v111l620 1224h-590v99h707v-111zM221 1823h111l143 -178l146 178h110l-184 -250h-144z" />
    <glyph glyph-name="zcaron" unicode="&#x17e;" horiz-adv-x="806" 
d="M709 928l-519 -840h525v-88h-623v98l518 838h-487v88h586v-96zM147 1413h111l143 -178l146 178h110l-184 -250h-143z" />
    <glyph glyph-name="florin" unicode="&#x192;" horiz-adv-x="808" 
d="M106 936v88h240v166q0 110 76.5 187t185.5 77q64 0 140 -37l-52 -74q-46 23 -88 23q-71 0 -119.5 -49t-48.5 -119v-174h271v-88h-271v-1063q0 -110 -75.5 -186t-184.5 -76q-67 0 -139 37l47 78q45 -27 92 -27q70 0 118 49t48 119v1069h-240z" />
    <glyph glyph-name="circumflex" unicode="&#x2c6;" horiz-adv-x="512" 
d="M111 1163h-111l182 250h144l186 -250h-113l-145 178z" />
    <glyph glyph-name="caron" unicode="&#x2c7;" horiz-adv-x="512" 
d="M0 1413h111l143 -178l145 178h111l-184 -250h-144z" />
    <glyph glyph-name="breve" unicode="&#x2d8;" horiz-adv-x="548" 
d="M0 1413h100q3 -56 48.5 -95.5t99.5 -39.5h53q58 0 101.5 39.5t46.5 95.5h100q-6 -96 -81 -164.5t-171 -68.5h-53q-91 0 -164.5 69t-79.5 164z" />
    <glyph glyph-name="dotaccent" unicode="&#x2d9;" horiz-adv-x="122" 
d="M0 1270v143h125v-143h-125z" />
    <glyph glyph-name="ring" unicode="&#x2da;" horiz-adv-x="301" 
d="M0 1296q0 63 44 107.5t106 44.5t106.5 -44.5t44.5 -107.5q0 -61 -44.5 -105t-106.5 -44t-106 44t-44 105zM74 1296q0 -32 21 -53.5t55 -21.5q35 0 56 21t21 54q0 35 -21 56.5t-56 21.5q-34 0 -55 -21.5t-21 -56.5z" />
    <glyph glyph-name="ogonek" unicode="&#x2db;" horiz-adv-x="415" 
d="M346 -281v-88h-100q-69 0 -119.5 49.5t-50.5 118.5q0 41 28 91t56 80l28 30h93q-12 -15 -30 -39.5t-48.5 -78.5t-30.5 -83q0 -35 22.5 -57.5t57.5 -22.5h94z" />
    <glyph glyph-name="tilde" unicode="&#x2dc;" horiz-adv-x="606" 
d="M84 1208h-86q8 72 60.5 129.5t117.5 57.5q47 0 133.5 -51.5t126.5 -51.5q35 0 57 27.5t27 62.5h86q-8 -72 -57.5 -129t-112.5 -57q-40 0 -88.5 25.5t-94 51t-77.5 25.5q-36 0 -60.5 -26.5t-31.5 -63.5z" />
    <glyph glyph-name="hungarumlaut" unicode="&#x2dd;" horiz-adv-x="669" 
d="M111 1163h-111l219 250h143zM414 1163h-111l219 250h144z" />
    <glyph glyph-name="endash" unicode="&#x2013;" horiz-adv-x="774" 
d="M774 655v-98h-774v98h774z" />
    <glyph glyph-name="emdash" unicode="&#x2014;" horiz-adv-x="1466" 
d="M1466 655v-98h-1466v98h1466z" />
    <glyph glyph-name="quoteleft" unicode="&#x2018;" horiz-adv-x="495" 
d="M332 1434l-70 -392h-139l137 392h72z" />
    <glyph glyph-name="quoteright" unicode="&#x2019;" horiz-adv-x="495" 
d="M164 1042l69 392h140l-140 -392h-69z" />
    <glyph glyph-name="quotesinglbase" unicode="&#x201a;" horiz-adv-x="495" 
d="M123 -246l70 389h139l-139 -389h-70z" />
    <glyph glyph-name="quotedblleft" unicode="&#x201c;" horiz-adv-x="776" 
d="M612 1434l-69 -392h-140l138 392h71zM332 1434l-70 -392h-139l137 392h72z" />
    <glyph glyph-name="quotedblright" unicode="&#x201d;" horiz-adv-x="776" 
d="M164 1042l69 392h140l-140 -392h-69zM444 1042l70 392h139l-139 -392h-70z" />
    <glyph glyph-name="quotedblbase" unicode="&#x201e;" horiz-adv-x="776" 
d="M164 -246l69 389h140l-140 -389h-69zM444 -246l70 389h139l-139 -389h-70z" />
    <glyph glyph-name="dagger" unicode="&#x2020;" horiz-adv-x="839" 
d="M717 1024v-100h-246v-1313h-109v1313h-239v100h239v410h109v-410h246z" />
    <glyph glyph-name="daggerdbl" unicode="&#x2021;" horiz-adv-x="839" 
d="M717 100v-100h-246v-389h-109v389h-239v100h239v824h-239v100h239v410h109v-410h246v-100h-246v-824h246z" />
    <glyph glyph-name="bullet" unicode="&#x2022;" horiz-adv-x="888" 
d="M156 750q0 121 86.5 207.5t208.5 86.5q121 0 207.5 -86t86.5 -208t-86.5 -208.5t-207.5 -86.5t-208 86.5t-87 208.5z" />
    <glyph glyph-name="ellipsis" unicode="&#x2026;" horiz-adv-x="1228" 
d="M133 0v143h143v-143h-143zM543 0v143h143v-143h-143zM952 0v143h144v-143h-144z" />
    <glyph glyph-name="perthousand" unicode="&#x2030;" horiz-adv-x="2490" 
d="M688 1163v-272q0 -121 -80.5 -206t-193.5 -85h-17q-113 0 -193.5 85.5t-80.5 205.5v272q0 121 80.5 206t193.5 85h17q113 0 193.5 -85t80.5 -206zM592 885v282q0 83 -55 141t-134 58q-76 0 -129 -58t-53 -141v-280q0 -84 54 -141.5t133 -57.5q76 0 130 57.5t54 139.5z
M1634 541v-273q0 -122 -80.5 -206.5t-193.5 -84.5h-17q-113 0 -193.5 85t-80.5 206v273q0 121 80.5 205.5t193.5 84.5h17q113 0 193.5 -84.5t80.5 -205.5zM1538 262v283q0 82 -54.5 139t-133.5 57q-76 0 -129.5 -57t-53.5 -139v-281q0 -85 53.5 -141.5t133.5 -56.5
q77 0 130.5 56.5t53.5 139.5zM469 0l719 1434h102q-293 -587 -719 -1434h-102zM2367 541v-273q0 -122 -80.5 -206.5t-193.5 -84.5h-16q-113 0 -194 85t-81 206v273q0 121 81 205.5t194 84.5h16q113 0 193.5 -84.5t80.5 -205.5zM2271 262v283q0 82 -54.5 139t-133.5 57
q-76 0 -129 -57t-53 -139v-281q0 -85 53 -141.5t133 -56.5q77 0 130.5 56.5t53.5 139.5z" />
    <glyph glyph-name="guilsinglleft" unicode="&#x2039;" horiz-adv-x="616" 
d="M483 287h-110l-240 311l240 311h110l-243 -311z" />
    <glyph glyph-name="guilsinglright" unicode="&#x203a;" horiz-adv-x="616" 
d="M242 287h-109l242 311l-242 311h109l241 -311z" />
    <glyph glyph-name="fraction" unicode="&#x2044;" horiz-adv-x="493" 
d="M-164 0l717 1434h104l-718 -1434h-103z" />
    <glyph glyph-name="Euro" unicode="&#x20ac;" horiz-adv-x="1052" 
d="M776 893v-105h-475v-153h410v-105h-410v-188q0 -111 75 -187.5t185 -76.5t186 76t76 186v10h107v-8q0 -151 -106 -256.5t-257 -105.5h-12q-151 0 -256.5 106.5t-105.5 257.5v186h-101v105h101v153h-101v105h101v199q0 151 105.5 256.5t256.5 105.5h12q151 0 257 -105.5
t106 -256.5h-107q-2 109 -77.5 184.5t-184.5 75.5q-110 0 -185 -76t-75 -186v-197h475z" />
    <glyph glyph-name="trademark" unicode="&#x2122;" horiz-adv-x="1386" 
d="M90 1368v66h436v-66h-184v-762h-74v762h-178zM1147 1434h86v-828h-74v678h-8l-154 -317h-75l-158 317h-8v-678h-72v828h86l186 -383h9z" />
    <glyph glyph-name="minus" unicode="&#x2212;" horiz-adv-x="1161" 
d="M1028 631v-103h-895v103h895z" />
    <glyph glyph-name="fi" unicode="&#xfb01;" horiz-adv-x="1042" 
d="M784 0v936h-487v-936h-96v936h-150v88h150v166q0 110 76.5 187t185.5 77q63 0 139 -37l-51 -74q-46 23 -88 23q-70 0 -118 -49t-48 -119v-174h586v-1024h-99zM770 1270v143h129v-143h-129z" />
    <glyph glyph-name="fl" unicode="&#xfb02;" horiz-adv-x="1028" 
d="M791 0v1346h-328q-70 0 -118 -49.5t-48 -120.5v-152h268v-88h-268v-936h-96v936h-150v88h150v145q0 110 76.5 187.5t185.5 77.5h422v-1434h-94z" />
    </font>
</defs>
</svg>
