<?xml version="1.0" encoding="utf-8"?>
<!-- Generator: Adobe Illustrator 24.1.2, SVG Export Plug-In . SVG Version: 6.00 Build 0)  -->
<svg version="1.1" id="Layer_1" xmlns="http://www.w3.org/2000/svg" xmlns:xlink="http://www.w3.org/1999/xlink" x="0px" y="0px"
	 viewBox="0 0 90 90" style="enable-background:new 0 0 90 90;" xml:space="preserve">
<style type="text/css">
	.st0{fill:#1D1D1B;}
</style>
<g>
	<path class="st0" d="M4.3,0h35.5C42.1,0,44,1.9,44,4.3s-1.9,4.3-4.3,4.3H8.5v72.9h72.9V51.3c0-2.4,1.9-4.3,4.3-4.3S90,49,90,51.3
		v34.4c0,2.4-1.9,4.3-4.3,4.3H4.3C1.9,90,0,88.1,0,85.7V4.3C0,1.9,1.9,0,4.3,0z"/>
</g>
<g>
	<g>
		<path class="st0" d="M18.8,67V51.4c0-2.4,1.9-4.3,4.3-4.3s4.3,1.9,4.3,4.3v5.3l17.8-17.8c0.8-0.8,1.9-1.2,3-1.2
			c1.1,0,2.2,0.4,3,1.2c1.7,1.7,1.7,4.4,0,6L33.3,62.7h5.3c2.4,0,4.3,1.9,4.3,4.3c0,2.4-1.9,4.3-4.3,4.3H23.1
			C20.7,71.2,18.8,69.3,18.8,67z"/>
	</g>
</g>
<g>
	<path class="st0" d="M56.4,0h29.3C88.1,0,90,1.9,90,4.3v29.3c0,2.4-1.9,4.3-4.3,4.3H56.4c-2.4,0-4.3-1.9-4.3-4.3V4.3
		C52.2,1.9,54.1,0,56.4,0z M81.5,8.5H60.7v20.8h20.8V8.5z"/>
</g>
</svg>
