<?xml version="1.0" encoding="utf-8"?>
<!-- Generator: Adobe Illustrator 20.1.0, SVG Export Plug-In . SVG Version: 6.00 Build 0)  -->
<svg version="1.1" id="Layer_1" xmlns="http://www.w3.org/2000/svg" xmlns:xlink="http://www.w3.org/1999/xlink" x="0px" y="0px"
	 viewBox="0 0 11.9 7" style="enable-background:new 0 0 11.9 7;" xml:space="preserve">
<style type="text/css">
	.st0{clip-path:url(#SVGID_2_);fill:#FFFFFF;}
	.st1{clip-path:url(#SVGID_4_);fill:none;stroke:#FFFFFF;stroke-width:2;stroke-linecap:round;}
</style>
<g>
	<defs>
		<rect id="SVGID_1_" x="-32.9" y="-10.3" width="18.2" height="20"/>
	</defs>
	<clipPath id="SVGID_2_">
		<use xlink:href="#SVGID_1_"  style="overflow:visible;"/>
	</clipPath>
	<path class="st0" d="M-15.6-1.1h-1.8c-0.4-1.3-1.6-2.3-3-2.3c-1.4,0-2.6,1-3,2.3H-32c-0.5,0-0.9,0.4-0.9,0.9c0,0.5,0.4,0.9,0.9,0.9
		h8.7c0.4,1.3,1.6,2.3,3,2.3c1.4,0,2.6-1,3-2.3h1.8c0.5,0,0.9-0.4,0.9-0.9C-14.7-0.7-15.1-1.1-15.6-1.1"/>
	<path class="st0" d="M-32-6.3h1.8c0.4,1.3,1.6,2.3,3,2.3c1.4,0,2.6-1,3-2.3h8.6c0.5,0,0.9-0.4,0.9-0.9c0-0.5-0.4-0.9-0.9-0.9h-8.6
		c-0.4-1.3-1.6-2.3-3-2.3c-1.4,0-2.6,1-3,2.3H-32c-0.5,0-0.9,0.4-0.9,0.9C-32.9-6.6-32.5-6.3-32-6.3"/>
	<path class="st0" d="M-15.6,5.7h-8.6c-0.4-1.3-1.6-2.3-3-2.3c-1.4,0-2.6,1-3,2.3H-32c-0.5,0-0.9,0.4-0.9,0.9c0,0.5,0.4,0.9,0.9,0.9
		h1.9c0.4,1.3,1.6,2.3,3,2.3c1.4,0,2.6-1,3-2.3h8.6c0.5,0,0.9-0.4,0.9-0.9C-14.7,6.1-15.1,5.7-15.6,5.7"/>
</g>
<g>
	<defs>
		<rect id="SVGID_3_" width="11.9" height="7"/>
	</defs>
	<clipPath id="SVGID_4_">
		<use xlink:href="#SVGID_3_"  style="overflow:visible;"/>
	</clipPath>
	<line class="st1" x1="6" y1="6" x2="10.9" y2="1"/>
	<line class="st1" x1="1" y1="1" x2="6" y2="6"/>
</g>
</svg>
