<?xml version="1.0" encoding="utf-8"?>
<svg width="29px" height="19px" viewbox="0 0 29 19" version="1.1" xmlns:xlink="http://www.w3.org/1999/xlink" xmlns="http://www.w3.org/2000/svg">
  <defs>
    <path d="M0 0L29 0L29 19L0 19L0 0Z" id="path_1" />
    <clipPath id="mask_1">
      <use xlink:href="#path_1" />
    </clipPath>
  </defs>
  <g id="Group-3">
    <path d="M0 0L29 0L29 19L0 19L0 0Z" id="Clip-2" fill="none" fill-rule="evenodd" stroke="none" />
    <g clip-path="url(#mask_1)">
      <path d="M19.68 17.8148C18.2011 17.8175 16.7497 17.4078 15.4828 16.6303C19.3455 13.1817 19.7337 7.19512 16.3497 3.25866C16.0802 2.94507 15.7907 2.64999 15.4828 2.37519C19.3446 0.0103849 24.3564 1.28384 26.6767 5.21956C28.9972 9.15512 27.7476 14.2626 23.8857 16.6272C22.6153 17.4053 21.1608 17.8159 19.6786 17.8148L19.68 17.8148ZM11.8348 7.20489C12.0427 6.47096 12.3492 5.76989 12.7457 5.12169L15.3884 3.93722C15.7346 4.32957 16.0435 4.75436 16.3111 5.20608L11.8348 7.20489ZM11.5544 10.2993C11.5297 10.0358 11.5166 9.76927 11.5166 9.49981C11.517 9.20591 11.5324 8.91245 11.5631 8.62033L16.8398 6.25138C17.0378 6.72621 17.1914 7.21895 17.2989 7.72309L11.5544 10.2993ZM17.4848 9.49981C17.4842 9.88372 17.4574 10.2671 17.4049 10.6473L12.259 12.954C12.0485 12.4873 11.8811 12.0014 11.7592 11.503L17.4675 8.94458C17.4805 9.12818 17.4877 9.31325 17.4877 9.49981L17.4848 9.49981ZM16.032 14.2377L13.7772 15.2399C13.4182 14.8573 13.0958 14.441 12.814 13.9964L17.0751 12.0879C16.8316 12.8522 16.4802 13.5763 16.032 14.2377L16.032 14.2377ZM9.32864 17.8148C4.82254 17.8175 1.16751 14.0969 1.1649 9.50454C1.16243 4.91219 4.81324 1.18746 9.31934 1.18479C10.8014 1.1839 12.2555 1.59447 13.5259 2.37223C12.9311 2.90509 12.4049 3.51258 11.9597 4.18003C9.32689 8.13722 9.99912 13.4733 13.5273 16.6244C12.2606 17.4044 10.8086 17.816 9.32864 17.8148L9.32864 17.8148ZM19.6786 0.000316895C17.8355 -0.00160788 16.0337 0.556724 14.5036 1.6038C10.2242 -1.31253 4.43522 -0.14108 1.57373 4.22016C-1.28791 8.58154 -0.138434 14.481 4.14102 17.3973C7.27695 19.5342 11.3677 19.5342 14.5036 17.3973C18.7844 20.3102 24.5716 19.1351 27.4299 14.7726C30.2883 10.4101 29.1352 4.51228 24.8544 1.59936C23.3221 0.556576 21.5211 0.000168836 19.6786 0.000316895L19.6786 0.000316895Z" id="Fill-1" fill="#FFFFFF" fill-rule="evenodd" stroke="none" />
    </g>
  </g>
</svg>