<svg width="20" height="20" viewBox="0 0 20 20" fill="none" xmlns="http://www.w3.org/2000/svg">
<path fill-rule="evenodd" clip-rule="evenodd" d="M2.74437 7.5304V14.7826H1.98263V8.87648C1.74263 9.25213 1.16871 9.4504 0.709584 9.4504H0.375671V8.7617H0.584367C1.30437 8.7617 1.93045 8.313 2.09741 7.5304H2.74437ZM9.45393 12.3721C9.45393 13.8956 8.4835 14.9391 6.97045 14.9391C5.69741 14.9391 4.78958 14.1982 4.60176 13.0295L5.3948 12.946C5.55132 13.7391 6.10437 14.2817 7.01219 14.2817C8.05567 14.2817 8.68176 13.5617 8.68176 12.4034C8.68176 11.2556 8.11828 10.5043 7.05393 10.5043C6.22958 10.5043 5.65567 11.0052 5.45741 11.8087L4.71654 11.7356L5.14437 7.5304H9.09915V8.19822H5.71828L5.43654 10.9217C5.79132 10.2226 6.40698 9.85735 7.24176 9.85735C8.61915 9.85735 9.45393 10.8174 9.45393 12.3721Z" fill="#9C9C9C"/>
<mask id="mask0_0_26846" style="mask-type:alpha" maskUnits="userSpaceOnUse" x="3" y="0" width="17" height="15">
<path fill-rule="evenodd" clip-rule="evenodd" d="M19.5652 0H3.91307V14.7826H19.5652V0Z" fill="white"/>
</mask>
<g mask="url(#mask0_0_26846)">
<path fill-rule="evenodd" clip-rule="evenodd" d="M3.91307 2.43276L7.5427 0V1.99644C7.55199 1.99551 7.55942 1.99086 7.56872 1.99086H13.1767C16.6995 1.99086 19.5652 4.85993 19.5652 8.38673C19.5652 11.9135 16.6995 14.7826 13.1767 14.7826C12.9202 14.7826 12.7121 14.5751 12.7121 14.3175C12.7121 14.0607 12.9202 13.8523 13.1767 13.8523C16.1865 13.8523 18.636 11.4 18.636 8.38673C18.636 5.37346 16.1865 2.92117 13.1767 2.92117H7.56872C7.55942 2.92117 7.55199 2.91652 7.5427 2.91559V4.86552L3.91307 2.43276Z" fill="#9C9C9C"/>
</g>
</svg>
