<svg width="20" height="20" viewBox="0 0 20 20" fill="none" xmlns="http://www.w3.org/2000/svg">
<path fill-rule="evenodd" clip-rule="evenodd" d="M12.8 7.5304V14.7826H12.0382V8.87648C11.7982 9.25213 11.2243 9.4504 10.7652 9.4504H10.4313V8.7617H10.64C11.36 8.7617 11.9861 8.313 12.153 7.5304H12.8ZM19.5095 12.3721C19.5095 13.8956 18.5391 14.9391 17.0261 14.9391C15.753 14.9391 14.8452 14.1982 14.6574 13.0295L15.4504 12.946C15.6069 13.7391 16.16 14.2817 17.0678 14.2817C18.1113 14.2817 18.7374 13.5617 18.7374 12.4034C18.7374 11.2556 18.1739 10.5043 17.1095 10.5043C16.2852 10.5043 15.7113 11.0052 15.513 11.8087L14.7721 11.7356L15.2 7.5304H19.1548V8.19822H15.7739L15.4921 10.9217C15.8469 10.2226 16.4626 9.85735 17.2974 9.85735C18.6748 9.85735 19.5095 10.8174 19.5095 12.3721Z" fill="#9C9C9C"/>
<mask id="mask0_0_26847" style="mask-type:alpha" maskUnits="userSpaceOnUse" x="1" y="0" width="16" height="15">
<path fill-rule="evenodd" clip-rule="evenodd" d="M1.30432 0H16.9565V14.7826H1.30432V0Z" fill="white"/>
</mask>
<g mask="url(#mask0_0_26847)">
<path fill-rule="evenodd" clip-rule="evenodd" d="M16.9565 2.43276L13.3269 0V1.99644C13.3176 1.99551 13.3101 1.99086 13.3009 1.99086H7.69287C4.17011 1.99086 1.30432 4.85993 1.30432 8.38673C1.30432 11.9135 4.17011 14.7826 7.69287 14.7826C7.94934 14.7826 8.15749 14.5751 8.15749 14.3175C8.15749 14.0607 7.94934 13.8523 7.69287 13.8523C4.68305 13.8523 2.23356 11.4 2.23356 8.38673C2.23356 5.37346 4.68305 2.92117 7.69287 2.92117H13.3009C13.3101 2.92117 13.3176 2.91652 13.3269 2.91559V4.86552L16.9565 2.43276Z" fill="#9C9C9C"/>
</g>
</svg>
