<?xml version="1.0" encoding="utf-8"?>
<!-- Generator: Adobe Illustrator 20.1.0, SVG Export Plug-In . SVG Version: 6.00 Build 0)  -->
<svg version="1.1" id="Layer_1" xmlns="http://www.w3.org/2000/svg" xmlns:xlink="http://www.w3.org/1999/xlink" x="0px" y="0px"
	 viewBox="0 0 18.2 20" style="enable-background:new 0 0 18.2 20;" xml:space="preserve">
<style type="text/css">
	.st0{clip-path:url(#SVGID_2_);fill:#010101;}
</style>
<g>
	<defs>
		<rect id="SVGID_1_" width="18.2" height="20"/>
	</defs>
	<clipPath id="SVGID_2_">
		<use xlink:href="#SVGID_1_"  style="overflow:visible;"/>
	</clipPath>
	<path class="st0" d="M17.3,9.1h-1.8c-0.4-1.3-1.6-2.3-3-2.3s-2.6,1-3,2.3H0.9C0.4,9.1,0,9.5,0,10c0,0.5,0.4,0.9,0.9,0.9h8.7
		c0.4,1.3,1.6,2.3,3,2.3c1.4,0,2.6-1,3-2.3h1.8c0.5,0,0.9-0.4,0.9-0.9C18.2,9.5,17.8,9.1,17.3,9.1"/>
	<path class="st0" d="M0.9,4h1.9c0.4,1.3,1.6,2.3,3,2.3c1.4,0,2.6-1,3-2.3h8.6c0.5,0,0.9-0.4,0.9-0.9c0-0.5-0.4-0.9-0.9-0.9H8.7
		C8.3,1,7.1,0,5.7,0c-1.4,0-2.6,1-3,2.3H0.9C0.4,2.3,0,2.6,0,3.1C0,3.6,0.4,4,0.9,4"/>
	<path class="st0" d="M17.3,16H8.7c-0.4-1.3-1.6-2.3-3-2.3s-2.6,1-3,2.3H0.9C0.4,16,0,16.4,0,16.9c0,0.5,0.4,0.9,0.9,0.9h1.9
		C3.1,19,4.3,20,5.7,20s2.6-1,3-2.3h8.6c0.5,0,0.9-0.4,0.9-0.9C18.2,16.4,17.8,16,17.3,16"/>
</g>
</svg>
