<?xml version="1.0" encoding="UTF-8"?><svg id="a" xmlns="http://www.w3.org/2000/svg" viewBox="0 0 320.14 253.78"><defs><style>.b{fill:#e4e4e4;}.b,.c,.d{font-family:GTAmerica-Light, GT America;font-size:12px;}.c{fill:#1d1d1b;}.e,.f,.g,.h,.i{fill:#176956;}.f{opacity:.9;}.f,.g,.h,.i{fill-rule:evenodd;}.g{opacity:.6;}.h{opacity:.7;}.i{opacity:.8;}.j{fill:none;stroke:#1d1d1b;stroke-miterlimit:10;stroke-width:.5px;}</style></defs><g><path class="g" d="M126.44,127.1l110.78-60.95c6.9,12.54,11.37,25.28,13.81,39.39l-124.59,21.56Z"/><path class="h" d="M126.44,127.1L191.91,18.93c19.95,12.08,34.07,26.79,45.32,47.23l-110.78,60.95Z"/><path class="e" d="M126.44,127.1L57.92,20.84c42.02-27.1,91.22-27.8,133.99-1.91L126.44,127.1Z"/><path class="i" d="M126.44,127.1L30.75,209.75C-14.89,156.9-9.05,77.06,43.79,31.41c4.12-3.56,9.54-7.62,14.12-10.57L126.44,127.1Z"/><path class="f" d="M126.44,127.1l124.59-21.56c11.91,68.81-34.22,134.24-103.03,146.15-45.76,7.92-86.9-6.8-117.25-41.94L126.44,127.1Z"/></g><text class="b" transform="translate(119 180.75)"><tspan x="0" y="0">Stand &amp; Deliver</tspan><tspan x="26.93" y="14.4">41.4%</tspan></text><text class="b" transform="translate(104.57 36.91)"><tspan x="0" y="0">Escape </tspan><tspan x="-2.38" y="14.4">Pressure</tspan><tspan x="6.52" y="28.8">17.8%</tspan></text><text class="b" transform="translate(39.97 104.15)"><tspan x="0" y="0">Take </tspan><tspan x="-3.55" y="14.4">a Sack</tspan><tspan x="-1.51" y="28.8">26.8%</tspan></text><text class="d" transform="translate(231.12 43.26)"><tspan x="0" y="0">Scramble</tspan><tspan x="12.76" y="14.4">8.3%</tspan></text><text class="c" transform="translate(259.48 88.36)"><tspan x="0" y="0">Throwaway</tspan><tspan x="18.61" y="14.4">5.1%</tspan></text><line class="j" x1="240.25" y1="84.36" x2="257.4" y2="84.36"/><line class="j" x1="211.45" y1="39.33" x2="228.6" y2="39.33"/></svg>