<?xml version="1.0" encoding="UTF-8"?><svg id="a" xmlns="http://www.w3.org/2000/svg" viewBox="0 0 320.16 253.67"><defs><style>.b{fill:#e4e4e4;}.b,.c{font-family:GTAmerica-Light, GT America;font-size:12px;}.c{fill:#1d1d1b;}.d,.e,.f,.g,.h{fill:#176956;}.e{opacity:.6;}.f{opacity:.9;}.g{opacity:.8;}.h{opacity:.7;}.i{fill:none;stroke:#1d1d1b;stroke-miterlimit:10;stroke-width:.5px;}</style></defs><g><path class="e" d="M126.47,126.98l120.38-38.69c1.71,5.32,3.26,11.63,4.21,17.13l-124.59,21.56Z"/><path class="h" d="M126.47,126.98L193.81,19.96c26.24,16.51,43.55,38.81,53.03,68.33l-120.38,38.69Z"/><path class="d" d="M126.47,126.98l124.59-21.56c11.91,68.81-34.22,134.24-103.03,146.15-29.45,5.1-54.93,.98-81.28-13.14l59.72-111.45Z"/><path class="g" d="M126.47,126.98L34.27,40.45C76.51-4.56,141.56-12.92,193.81,19.96L126.47,126.98Z"/><path class="f" d="M126.47,126.98l-59.72,111.45C5.2,205.45-17.97,128.82,15.01,67.26c5.41-10.09,11.42-18.46,19.25-26.81L126.47,126.98Z"/></g><text class="b" transform="translate(20.62 133.07)"><tspan x="0" y="0">Stand &amp; Deliver</tspan><tspan x="26.9" y="14.4">29.1%</tspan></text><text class="b" transform="translate(124.38 178.54)"><tspan x="0" y="0">Escape Pressure</tspan><tspan x="29.2" y="14.4">35.7%</tspan></text><text class="b" transform="translate(83.21 47.09)"><tspan x="0" y="0">Take a Sack</tspan><tspan x="17.91" y="14.4">22.1%</tspan></text><text class="b" transform="translate(173.68 72.63)"><tspan x="0" y="0">Scramble</tspan><tspan x="12.61" y="14.4">11.1%</tspan></text><text class="c" transform="translate(259.5 102.24)"><tspan x="0" y="0">Throwaway</tspan><tspan x="22.51" y="14.4">2%</tspan></text><line class="i" x1="240.27" y1="98.24" x2="257.42" y2="98.24"/></svg>