<?xml version="1.0" encoding="UTF-8"?><svg id="a" xmlns="http://www.w3.org/2000/svg" viewBox="0 0 252.91 253.31"><defs><style>.b{fill:#e4e4e4;font-family:GTAmerica-Light, GT America;font-size:12px;}.c,.d,.e,.f,.g{fill:#176956;}.d{opacity:.6;}.e{opacity:.9;}.f{opacity:.8;}.g{opacity:.7;}</style></defs><g><path class="d" d="M126.44,126.64L146.62,1.82c30.4,4.91,55.38,18.87,75.51,42.17L126.44,126.64Z"/><path class="g" d="M126.44,126.64L222.13,43.99c15.38,17.81,24.89,37.9,28.9,61.09l-124.59,21.56Z"/><path class="c" d="M126.44,126.64L36.75,215.76c-49.22-49.54-48.97-129.59,.57-178.82,2.63-2.61,5.31-5.06,8.16-7.43L126.44,126.64Z"/><path class="f" d="M126.44,126.64L45.48,29.52C74.87,5.02,108.84-4.29,146.62,1.82l-20.18,124.82Z"/><path class="e" d="M126.44,126.64l124.59-21.56c11.91,68.81-34.22,134.24-103.03,146.15-42.52,7.36-80.83-4.85-111.25-35.47L126.44,126.64Z"/></g><text class="b" transform="translate(116.97 184.16)"><tspan x="0" y="0">Stand &amp; Deliver</tspan><tspan x="25.79" y="14.4">40.7%</tspan></text><text class="b" transform="translate(31.67 108.61)"><tspan x="0" y="0">Escape </tspan><tspan x="-2.38" y="14.4">Pressure</tspan><tspan x="5.26" y="28.8">26.5%</tspan></text><text class="b" transform="translate(83.6 35.42)"><tspan x="0" y="0">Take a </tspan><tspan x="6.08" y="14.4">Sack</tspan><tspan x="4.22" y="28.8">13.8%</tspan></text><text class="b" transform="translate(186.88 86.66)"><tspan x="0" y="0">Scramble</tspan><tspan x="12.77" y="14.4">8.5%</tspan></text><text class="b" transform="translate(146.77 47.92)"><tspan x="0" y="0">Throwaway</tspan><tspan x="17.33" y="14.4">11.1%</tspan></text></svg>