<?xml version="1.0" encoding="utf-8"?>
<!-- Generator: Adobe Illustrator 26.0.0, SVG Export Plug-In . SVG Version: 6.00 Build 0)  -->
<svg version="1.1" id="Layer_1" xmlns="http://www.w3.org/2000/svg" xmlns:xlink="http://www.w3.org/1999/xlink" x="0px" y="0px"
	 viewBox="0 0 576 208.21" style="enable-background:new 0 0 576 208.21;" xml:space="preserve">
<style type="text/css">
	.st0{fill:#FFFFFF;}
	.st1{fill:#CE0E2D;}
	.st2{fill:#1A428A;}
	.st3{fill:#E1251B;}
</style>
<g>
	<g>
		<g>
			<path class="st0" d="M38.23,141.23 M70.73,0H21.68C9.72,0,0,9.73,0,21.68v166.07c0,11.97,9.72,21.71,21.68,21.71h49.01
				c11.96,0,21.73-9.74,21.73-21.71V21.68C92.42,9.73,82.68,0,70.73,0"/>
			<path class="st1" d="M58.56,38.4l0.05,0.71c1.5,0.87,2.25,1.58,3.76,2.55c4,2.52,8.93,6.99,8.31,22.41
				c1.12,3.36,1.62,9.97,2.65,12.09c2.08,4.13,3.47,6.82,4.08,10.72c0,0,0.6,6.07,1.38,6.51c4.14,0.93,2.94,1.34,3.55,2.05
				c0.64,0.83,3.03,0.79,3.03,3.02c0.83,1.11,1.44,2.26,1.91,3.46V21.68c0-9.14-7.44-16.57-16.55-16.57H54.88
				c2.55,0.9,3.98,1.97,4.82,3.67c2.05,0.18,4.48,4.76,0.69,11.54c1.68,1.12,0.37,2.79-0.84,4.73c-0.35,0.62-0.74,1.73-1.86,1.65
				c-1.44,3.03-3.18,5.96-4.49,6.15c-0.4,0.49-0.69,1.79-0.09,2.41C55.05,36.11,57.4,37.3,58.56,38.4"/>
			<path class="st1" d="M87.28,112.79c-2.15,5.45-7.5,9.31-13.75,9.31c-8.18,0-14.78-6.61-14.78-14.77
				c0-6.97,4.79-12.81,11.29-14.37c-1.7-4.26-5.3-11.17-6.37-13.44c-1.01-2.25-3.45-16.3-3.97-19.08c-0.12-0.61-6.38,3.63-6.39,3.89
				c-0.37,0.35-4.69,11.66-4.88,12.27c-0.09,0.39-0.1,1.9-0.1,1.9s2.13,0.26,3.35,3.98c1.21,3.71,4.91,17.24,4.91,17.24
				s-1,1.03-1.04,0.97c4.67,15.63,3.04,22.35,5.13,26.93c2.63,6.46,3.34,5.61,5.6,11.04c1.62,3.95,3.43,19.51,4.03,20.2
				c2.52,3.19,3.88,5.69,3.88,7.49c0,1.81-2.13,7.17-1.36,10.29c0.47,1.84,0.72,5.95,1.57,6.73c0,0,0.78,1.55,0.4,2.23
				c-0.11,0.24-0.33,0.6-0.23,0.88c1.39,4.91,5.88,13.27-1.39,17.66h0.16c7.93-1.23,13.94-8.03,13.94-16.38V112.79z"/>
			<path class="st2" d="M68.62,184.57c-2.66-2.38-0.88-3.38-0.99-4.32c-1.76-7.25-7.52-11.64-4.54-14.04
				c-0.73-2.4-2.23-5.4-2.18-5.4c-8.98-5.16-16.63-13.53-17.93-14.76c-1.58-1.71-4.26-3.43-4.76-4.82
				c-2.16-1.98-12.74-17-15.21-22.53l-4.3-0.61c-1.95-7.98-8.48-14.67-8.64-22.68c-0.06-3.03,1.37-9.51,1.9-10.8
				c0.52-1.31,3.02-3.46,3.02-3.46v-2.14c-9.37,0.27-6.68-0.69-8.29-4.33c-1.13-2.52-0.32-3.08,0.09-4.83
				c1.26-5.16,5.43-13.13,7.16-16.75c0.53-1.83,2.33-6.23,2.33-6.23c6.98-14.22,9.59-13.18,17.89-13.98l0.41-0.59
				c8.31-0.36,6.95-0.99,8.12-8.99c-1.21,0.52-1.57-2.51-1.57-2.51c-0.66-4.56,1.26-3.69,2.17-3.78c0.19-7.49,0.96-9.85,6.37-11.91
				h-28c-9.16,0-16.58,7.43-16.58,16.58v166.06c0,9.16,7.42,16.59,16.58,16.59h49.04C65.11,201.31,68.43,195.53,68.62,184.57z"/>
			<path class="st0" d="M30.97,193.91v-30.07h5.83c3.37,0,5.46,1.81,5.46,6.02v4.46c0,2.73-0.83,4.13-2,4.8c1.17,0.8,2,2.15,2,4.42
				v4.38c0,4.13-2.21,5.98-5.46,5.98H30.97z M34.97,180.85v9.26h1.54c1.38,0,1.75-0.72,1.75-2.15v-5.1c0-1.47-0.46-2.02-1.79-2.02
				H34.97z M34.97,167.63v9.94h1.5c1.42,0,1.79-0.51,1.79-2.15v-5.77c0-1.39-0.42-2.02-1.75-2.02H34.97z M51.68,187.8h-3.63
				l-0.5,6.11h-4.04l3.63-30.07h5.75l3.5,30.07h-4.21L51.68,187.8z M49.88,167.21h-0.21c-0.25,3.62-0.75,9.98-0.92,12l-0.46,5.18
				h3.12l-0.46-5.18C50.8,177.15,50.22,170.87,49.88,167.21 M19.05,193.91h-3.5v-30.07h5.54l4.46,24.64
				c-0.37-5.89-0.88-13.01-0.88-19.08v-5.56h3.5v30.07h-5.08l-4.46-24.09c0.29,5.56,0.42,9.98,0.42,14.61V193.91z"/>
		</g>
		
			<ellipse transform="matrix(0.3844 -0.9232 0.9232 0.3844 -17.5026 187.363)" class="st0" cx="131.74" cy="106.81" rx="14.85" ry="14.85"/>
	</g>
	<g>
		<path class="st3" d="M410.83,93.59l0.11-0.18L410.83,93.59c-2.07-1.42-5.05-2.07-7.96-2.07c-6.62,0-11.35,3.28-14.46,7.88
			c-3.1,4.6-4.55,10.54-4.55,15.83c0,3.82,0.57,7.39,2.9,10.6c1.15,1.57,3.93,5.34,12.91,5.36c6.25,0,9.21-1.62,10.81-2.56
			l0.27-0.36c0.31-1.36,1.37-7.58,1.8-9.14l-0.33-0.25c-3.15,2.5-6.59,4.33-10.49,4.33c-2.62,0-4.62-0.62-5.96-1.82
			c-1.34-1.2-2.01-2.96-2-5.14c0-0.81,0.06-1.54,0.13-2.34l0.02-0.19l0.18-0.01c6.11-0.16,9.23-0.24,14.35-0.24
			c1.67,0,3.56,0.01,5.83,0.02l0.39-0.28c0.51-2.37,1.07-5.09,1.07-8.42C415.73,101.83,415.41,96.57,410.83,93.59z M406.79,106.57
			l-0.03,0.17l-5.99,0.07l-5.92,0.08l0.06-0.2l0.03-0.09c0.12-0.42,0.24-0.87,0.39-1.34c0.41-1.3,0.99-2.72,2.03-4.03
			c0.18-0.23,0.36-0.45,0.57-0.67c1.83-2,3.57-2.32,4.69-2.32c1.59,0,2.76,0.63,3.5,1.58c0.13,0.16,0.23,0.33,0.33,0.51
			c0.37,0.63,0.59,1.35,0.68,2.09c0.04,0.27,0.06,0.55,0.06,0.82C407.17,104.39,406.98,105.48,406.79,106.57z M383.53,99.83
			l-0.41,0.4l-5.9-0.14l-2.73,12.86c-0.39,1.61-1.22,5.64-1.22,6.94c0,1.21,0.44,2.04,1.08,2.53c0.64,0.49,1.43,0.66,2.13,0.66
			c1.64,0,2.22-0.46,3.31-0.88l0.19,0.19l-1.44,7.4l-0.5,0.49c-2.02,0.43-3.52,0.78-5.65,0.78c-5.47-0.03-9.44-1.87-9.46-8.27
			c0-3,1.21-8.44,2.11-12.49l2.17-10.21l-4.63,0.15l-0.27-0.4l1.35-7.19l0.43-0.24h4.7l1.88-9.47l0.37-0.41
			c4.7-1.21,6.06-1.79,10.36-3.2l0.22,0.25l-1.43,6.11l-1.46,6.87l6.03-0.18l0.16,0.31L383.53,99.83z M456.26,87.69l-0.32,0.35
			l-15.56-0.03L437.84,101l13.61-0.41l0.2,0.32c-1.12,3.74-1.38,4.79-2.13,8.05l-0.35,0.33l-12.95-0.03l-1.71,9.01l-2.15,11.7
			l-0.28,0.27l-11.16,0.29l-0.13-0.29l1.93-9.96l2.95-14.06c2.24-10.93,2.88-14.42,4.98-26.32l0.34-0.34h16.3l10.35-0.26l0.2,0.26
			L456.26,87.69z M478.24,94.01c-2.16-1.52-5.62-2.31-10.36-2.31c-2.34,0-4.7,0.23-7.08,0.68c-2.11,0.4-3.43,0.74-4.55,1.07
			l-0.31,0.31l-1.54,7.87l0.5,0.3c0.99-0.45,2.44-1.02,4.35-1.69c1.95-0.69,3.75-1.03,5.38-1.03c2.37,0,4.17,0.32,5.42,1
			c1.26,0.68,2.17,2.18,2.17,3.84c0,0.4-0.03,0.76-0.09,1.08c-0.06,0.3-0.1,0.52-0.12,0.65l-0.02,0.17c0,0-0.77,0.05-1.58,0.12
			c-0.54,0.05-1.23,0.12-2.02,0.22c-1.31,0.14-2.8,0.32-4.1,0.54c-3.14,0.52-11.94,1.89-14.57,7.79
			c-2.77,4.83-2.29,11.24,0.42,14.36c0.96,1.1,2.42,2.13,4.39,2.54v0.01c0.09,0.02,0.39,0.06,0.45,0.08
			c7.62,1.17,13.07-5.46,13.07-5.46l-0.81,4.1l0.33,0.29l8.56-0.29l0.34-0.31l5.04-25.28c0.11-0.53,0.19-1.16,0.25-1.88
			c0.05-0.73,0.09-1.31,0.09-1.75C481.87,97.78,480.41,95.54,478.24,94.01z M469.44,119.29c0,0-2.04,3.21-4.99,4.36
			c-2.96,1.15-5.08,0.24-5.93-0.9c-0.67-0.89-2.07-3.72,0.59-6.89c2.69-3.2,11.61-3.4,11.61-3.4L469.44,119.29z M510.95,91.18
			l-2.09,10.88l-0.44,0.44c-0.6-0.1-1.36-0.2-2.26-0.2c-2.82,0-6.84,0.9-9.98,5.07l-0.03,0.04l-4.32,22.56l-0.31,0.27l-9.39,0.28
			l-0.25-0.24l7.38-37.88l0.4-0.39l9.3-0.9l0.37,0.4l-1.07,5.48l0.45-0.42c1.94-1.76,3.67-2.98,5.6-4.08
			c1.91-1.09,3.82-1.64,5.74-1.64c0.18,0,0.38,0,0.58,0.01L510.95,91.18z M561.24,100.71c0,2.29-0.51,4.67-1.02,6.98l-4.37,22.28
			l-0.34,0.27l-9.82,0.34l-0.25-0.34c0,0,5.04-24.61,5.04-25.83c0-1.12-0.58-4.11-3.72-4.11c-2.46,0-5.01,2.49-5.01,2.49
			l-5.31,27.18l-0.33,0.27l-4.23,0.15v0l-3.79,0.13l-1.88,0.07l-0.12-0.16l-0.12-0.18c0,0,0.77-3.75,1.7-8.39h-0.02
			c1.47-7.25,3.34-16.7,3.34-17.45c0-1.12-0.58-4.11-3.72-4.11c-2.45,0-5,2.49-5,2.49l-5.31,27.18l-0.32,0.27l-1.52,0.05l-8.37,0.28
			l-0.21-0.33l7.37-37.85l0.37-0.37l9.81-0.93l0.4,0.4l-1.04,5.32c0,0,4.73-5.18,10.76-5.3c5.63-0.1,6.81,5.3,6.81,5.3
			s5.6-5.43,11.58-5.3C555.62,91.55,561.22,92.88,561.24,100.71z M355.95,94.01c-2.16-1.52-5.62-2.31-10.36-2.31
			c-2.34,0-4.7,0.23-7.07,0.68c-2.12,0.4-3.44,0.74-4.56,1.07l-0.3,0.31l-1.54,7.87l0.5,0.3c0.99-0.45,2.44-1.02,4.34-1.69
			c1.96-0.69,3.75-1.03,5.38-1.03c2.38,0,4.17,0.32,5.42,1c1.26,0.68,2.17,2.18,2.17,3.84c0,0.4-0.03,0.76-0.09,1.08
			c-0.06,0.3-0.1,0.52-0.11,0.65l-0.02,0.17c0,0-0.77,0.05-1.59,0.12c-0.54,0.05-1.22,0.12-2.01,0.22c-1.31,0.14-2.8,0.32-4.1,0.54
			c-3.13,0.52-11.93,1.89-14.57,7.79c-2.77,4.83-2.29,11.24,0.42,14.36c0.95,1.1,2.42,2.13,4.4,2.54l0,0.01
			c0.09,0.02,0.4,0.06,0.46,0.08c7.62,1.17,13.07-5.46,13.07-5.46l-0.82,4.1l0.34,0.29l8.56-0.29l0.34-0.31l5.03-25.28
			c0.11-0.53,0.19-1.16,0.26-1.88c0.06-0.73,0.09-1.31,0.09-1.75C359.58,97.78,358.12,95.54,355.95,94.01z M347.15,119.29
			c0,0-2.04,3.21-4.99,4.36c-2.96,1.15-5.07,0.24-5.92-0.9c-0.67-0.89-2.07-3.72,0.59-6.89c2.69-3.2,11.61-3.4,11.61-3.4
			L347.15,119.29z M326.53,99.83l-0.41,0.4l-5.89-0.14l-2.73,12.86c-0.38,1.61-1.22,5.64-1.22,6.94c0,1.21,0.44,2.04,1.09,2.53
			c0.64,0.49,1.43,0.66,2.13,0.66c1.64,0,2.22-0.46,3.31-0.88l0.19,0.19l-1.45,7.4l-0.5,0.49c-2.02,0.43-3.52,0.78-5.65,0.78
			c-5.48-0.03-9.44-1.87-9.47-8.27c0-3,1.21-8.44,2.11-12.49l2.17-10.21l-4.63,0.15l-0.27-0.4l1.35-7.19l0.42-0.24h4.7l1.89-9.47
			l0.36-0.41c4.71-1.21,6.07-1.79,10.36-3.2l0.22,0.25l-1.42,6.11l-1.46,6.87l6.03-0.18l0.16,0.31L326.53,99.83z M304.39,82.36
			l-1.8,9.22l-0.39,0.13c-0.72-1-1.14-1.4-2.14-2.17c-2.21-1.7-4.81-2.66-7.48-2.66c-2.09,0-3.82,0.65-5.03,1.74
			c-1.21,1.09-1.9,2.63-1.9,4.35c0.01,3.25,2.23,4.84,6.19,7.22l1.54,0.87c3.32,2.18,8.47,5.51,8.47,13.08
			c-0.02,8.6-5.53,17.24-18.75,17.25c-3.24,0-6.42-0.58-9.47-1.73c-2.06-0.78-3.05-1.47-4.3-2.39l-0.1-0.59l1.75-9l0.39-0.14
			c0.79,1.02,1.79,1.87,3.29,2.86c3.18,2.13,6.24,2.35,7.54,2.35c4.67,0,8.34-2.67,8.34-6.81c-0.01-3.7-2.93-5.56-6-7.36l-2.11-1.3
			c-3.32-2.18-7.95-5.15-7.96-12.57c0-2.86,0.82-6.96,3.35-10.31c3.33-4.42,8.58-6,13.86-6.01c6.8,0.01,10.69,2.41,12.51,3.58
			L304.39,82.36z M214.42,117.27c0,2.51-1.68,4.81-4.46,6.5c-2.78,1.69-6.64,2.74-10.92,2.74c-4.27,0-8.1-1.05-10.84-2.74
			c-2.75-1.69-4.4-3.99-4.39-6.5c-0.01-2.51,1.64-4.8,4.4-6.47c2.75-1.67,6.59-2.7,10.86-2.7c4.27,0,8.13,1.03,10.89,2.7
			C212.74,112.47,214.42,114.76,214.42,117.27z M204.47,92.12c0-2.51,1.65-4.8,4.41-6.46c2.75-1.67,6.59-2.7,10.86-2.7
			c4.27,0,8.13,1.04,10.9,2.7c2.78,1.67,4.45,3.96,4.45,6.46c0,2.51-1.68,4.81-4.46,6.51c-2.78,1.69-6.64,2.74-10.91,2.74
			c-4.28,0-8.1-1.05-10.84-2.74C206.11,96.93,204.47,94.63,204.47,92.12z M255.66,117.27c0,2.51-1.68,4.81-4.46,6.5
			c-2.78,1.69-6.64,2.74-10.91,2.74c-4.27,0-8.1-1.05-10.84-2.74c-2.75-1.69-4.39-3.99-4.39-6.5c-0.01-2.51,1.65-4.8,4.41-6.47
			c2.75-1.67,6.59-2.7,10.86-2.7c4.27,0,8.13,1.03,10.9,2.7C254,112.47,255.66,114.76,255.66,117.27z M240.31,102.25
			c-1.91,0-3.75,0.18-5.51,0.51c3.83-2.73,6.19-6.5,6.19-10.65c0-8.35-9.49-15-21.28-15c-11.78,0-21.17,6.65-21.17,15
			c0,4.17,2.32,7.93,6.11,10.67c-1.78-0.34-3.66-0.52-5.59-0.52c-11.78,0-21.18,6.65-21.18,15c0,8.35,9.35,15.12,21.13,15.12
			c10.03,0,18.45-4.91,20.73-11.51c2.24,6.61,10.5,11.51,20.52,11.51c11.78,0,21.33-6.77,21.33-15.12
			C261.59,108.89,252.09,102.25,240.31,102.25z M202.55,92.1c0.01-3.67,2.82-6.19,4.47-7.37c3.33-2.35,7.82-3.63,12.69-3.63
			c4.88,0,9.41,1.29,12.76,3.64c1.67,1.18,4.51,3.7,4.52,7.36c-0.04,6.11-8,11.1-17.33,11.11c-4.85,0-9.34-1.3-12.65-3.68
			C204.16,97.48,202.55,94.84,202.55,92.1z M199.01,128.36c-4.84,0-9.33-1.3-12.64-3.67c-2.86-2.06-4.47-4.7-4.47-7.44
			c0-3.67,2.82-6.19,4.48-7.37c3.32-2.35,7.82-3.63,12.7-3.63c4.88,0,9.4,1.28,12.75,3.64c1.67,1.18,4.52,3.69,4.53,7.36
			C216.31,123.36,208.34,128.35,199.01,128.36z M214.28,106.73c1.72,0.32,3.52,0.49,5.39,0.49c1.91,0,3.75-0.18,5.51-0.51
			c-2.62,1.89-4.52,4.26-5.43,6.94C218.83,110.99,216.9,108.61,214.28,106.73z M240.27,128.36c-4.85,0-9.34-1.3-12.65-3.67
			c-2.87-2.06-4.48-4.7-4.48-7.44c0.01-3.67,2.83-6.19,4.48-7.36c3.32-2.35,7.82-3.63,12.69-3.63c4.88,0,9.4,1.29,12.75,3.64
			c1.68,1.18,4.51,3.69,4.52,7.36C257.55,123.36,249.6,128.35,240.27,128.36z"/>
		<g>
			<path class="st3" d="M576,97.21c0,3.24-2.33,5.7-5.41,5.7c-3.06,0-5.41-2.46-5.41-5.7c0-3.3,2.3-5.71,5.44-5.71
				C573.67,91.5,576,93.98,576,97.21z M565.9,97.2c0,2.77,2.1,5.02,4.69,5.02c2.59,0,4.69-2.25,4.69-5.03c0-1.33-0.5-2.67-1.34-3.56
				c-0.81-0.87-2.1-1.42-3.29-1.42C567.92,92.2,565.9,94.33,565.9,97.2z M570.33,93.98c0.68,0,1,0.03,1.39,0.16
				c0.68,0.23,1.12,0.87,1.12,1.6c0,0.78-0.49,1.39-1.26,1.63l1.31,3.08h-0.91l-1.21-2.91l-0.06-0.02h-0.57h-0.61l-0.1,0.02v2.91
				h-0.83v-6.47H570.33z M570.29,96.86c0.79,0,1.1-0.05,1.34-0.24c0.26-0.18,0.4-0.5,0.4-0.86c0-0.47-0.21-0.81-0.61-0.95
				c-0.23-0.1-0.58-0.13-1.29-0.13h-0.7v2.18H570.29z"/>
		</g>
	</g>
</g>
</svg>
