<?xml version="1.0" encoding="UTF-8"?>
<svg width="239px" height="5px" viewBox="0 0 239 5" version="1.1" xmlns="http://www.w3.org/2000/svg" xmlns:xlink="http://www.w3.org/1999/xlink">
    <title>Stroke 39</title>
    <g id="NBA-Draft-2023-Updates" stroke="none" stroke-width="1" fill="none" fill-rule="evenodd" stroke-linecap="square">
        <g id="Desktop-HD-Copy-69" transform="translate(-437.000000, -4318.000000)" stroke="#000000" stroke-width="1.325">
            <path d="M438.5,4320.5 C440.958,4318.056 445.875,4318.056 448.333,4320.5 C450.792,4322.944 455.708,4322.944 458.167,4320.5 C460.625,4318.056 465.542,4318.056 468,4320.5 C470.458,4322.944 475.375,4322.944 477.833,4320.5 C480.292,4318.056 485.208,4318.056 487.667,4320.5 C490.125,4322.944 495.042,4322.944 497.5,4320.5 C499.958,4318.056 504.875,4318.056 507.333,4320.5 C509.792,4322.944 514.708,4322.944 517.167,4320.5 C519.625,4318.056 524.542,4318.056 527,4320.5 C529.458,4322.944 534.375,4322.944 536.833,4320.5 C539.292,4318.056 544.208,4318.056 546.667,4320.5 C549.125,4322.944 554.042,4322.944 556.5,4320.5 C558.958,4318.056 563.875,4318.056 566.333,4320.5 C568.792,4322.944 573.708,4322.944 576.167,4320.5 C578.625,4318.056 583.542,4318.056 586,4320.5 C588.458,4322.944 593.375,4322.944 595.833,4320.5 C598.292,4318.056 603.208,4318.056 605.667,4320.5 C608.125,4322.944 613.042,4322.944 615.5,4320.5 C617.958,4318.056 622.875,4318.056 625.333,4320.5 C627.792,4322.944 632.708,4322.944 635.167,4320.5 C637.625,4318.056 642.542,4318.056 645,4320.5 C647.458,4322.944 652.375,4322.944 654.833,4320.5 C657.292,4318.056 662.208,4318.056 664.667,4320.5 C667.125,4322.944 672.042,4322.944 674.5,4320.5" id="Stroke-39"></path>
        </g>
    </g>
</svg>