<svg id="Layer_1" data-name="Layer 1" xmlns="http://www.w3.org/2000/svg" xmlns:xlink="http://www.w3.org/1999/xlink" viewBox="0 0 24.61 20"><defs><style>.cls-1{fill:none;}.cls-2{clip-path:url(#clip-path);}.cls-3{fill:#fff;}</style><clipPath id="clip-path" transform="translate(0 0)"><rect class="cls-1" width="24.61" height="20"/></clipPath></defs><title>twitter-silo</title><g class="cls-2"><path class="cls-3" d="M24.61,2.37a10.07,10.07,0,0,1-2.9.8A5.06,5.06,0,0,0,23.93.37a10.13,10.13,0,0,1-3.21,1.23,5.05,5.05,0,0,0-8.6,4.6A14.34,14.34,0,0,1,1.71.92,5.06,5.06,0,0,0,3.28,7.67,5,5,0,0,1,1,7V7.1A5.05,5.05,0,0,0,5,12a5.07,5.07,0,0,1-2.28.09,5.05,5.05,0,0,0,4.72,3.51A10.13,10.13,0,0,1,1.2,17.8,10.19,10.19,0,0,1,0,17.73,14.29,14.29,0,0,0,7.74,20,14.27,14.27,0,0,0,22.1,5.63q0-.33,0-.65a10.26,10.26,0,0,0,2.52-2.61" transform="translate(0 0)"/></g></svg>